<svg width="24" height="24" viewBox="0 0 24 24" fill="none" xmlns="http://www.w3.org/2000/svg">
<g clip-path="url(#clip0_791_2984)">
<path d="M23.6636 5.7886L22.389 5.00723C21.8865 4.01875 20.9206 3.31728 19.8162 3.15442L19.5166 3.11026L19.5099 1.37977C19.5086 1.04357 19.27 0.755149 18.94 0.690841C18.61 0.626439 18.2806 0.804331 18.1532 1.11549L17.2811 3.24512C17.2689 3.275 17.2597 3.3053 17.2518 3.33574C15.7298 3.95481 14.6539 5.44973 14.6539 7.1914V8.41837C14.6539 9.32493 13.9163 10.0625 13.0098 10.0625H12.5392C8.78342 10.0625 5.72788 13.118 5.72788 16.8738V21.9112H2.78822C2.02784 21.9112 1.40923 21.2926 1.40923 20.5322C1.40923 19.7718 2.02784 19.1532 2.78822 19.1532H3.13907C3.5282 19.1532 3.84368 18.8377 3.84368 18.4485C3.84368 18.0594 3.5282 17.7439 3.13907 17.7439H2.78822C1.25079 17.744 0 18.9948 0 20.5322C0 22.0696 1.25079 23.3204 2.78822 23.3204L15.3031 23.3208C15.9162 23.3208 16.4695 23.0615 16.8604 22.6472C17.3195 23.0653 17.9293 23.3206 18.5977 23.3207L19.5377 23.3208C20.7032 23.3208 21.6515 22.3726 21.6515 21.207C21.6515 20.2883 21.0625 19.5047 20.2423 19.2139V16.9126C21.3423 15.376 21.9457 13.5039 21.9457 11.6132V9.72262L23.3588 8.69477C23.5015 8.591 23.6 8.43749 23.635 8.26463L23.986 6.52901C24.0447 6.23899 23.9159 5.94324 23.6636 5.7886ZM22.3081 7.71643L20.8266 8.79398C20.6443 8.92659 20.5364 9.1384 20.5364 9.36383V11.6132C20.5364 13.2789 19.9823 14.9276 18.976 16.2557C18.8833 16.3782 18.833 16.5276 18.833 16.6813V19.7978C18.833 20.1869 19.1485 20.5024 19.5377 20.5024C19.9262 20.5024 20.2423 20.8185 20.2423 21.207C20.2423 21.5956 19.9262 21.9116 19.5378 21.9116L18.598 21.9115C17.9505 21.9114 17.4238 21.3845 17.4238 20.7371V16.0868C17.4238 15.6977 17.1083 15.3822 16.7192 15.3822C16.3301 15.3822 16.0146 15.6977 16.0146 16.0868V19.1584C15.7918 19.0797 15.5524 19.0364 15.3031 19.0364H14.4029V17.7924C14.4029 15.8065 13.0603 14.0779 11.1379 13.5887C10.7608 13.4929 10.3773 13.7207 10.2813 14.0978C10.1853 14.4749 10.4132 14.8584 10.7904 14.9544C12.0876 15.2845 12.9936 16.4515 12.9936 17.7924V19.741C12.9936 20.1302 13.3091 20.4457 13.6983 20.4457H15.303C15.7071 20.4457 16.0358 20.7744 16.0358 21.1788C16.0358 21.5829 15.7071 21.9116 15.303 21.9116H13.7777C13.7746 21.9116 13.7717 21.9112 13.7686 21.9112H7.13716V16.8738C7.13716 13.8951 9.56052 11.4717 12.5392 11.4717H13.0098C14.6934 11.4717 16.0631 10.102 16.0631 8.41837V7.1914C16.0631 5.67436 17.2974 4.44015 18.8144 4.44015H18.8171H18.8749L19.6107 4.54866C20.3102 4.65182 20.9159 5.12053 21.1913 5.77183C21.2486 5.90721 21.3467 6.02136 21.472 6.09812L22.5071 6.7326L22.3081 7.71643Z" fill="#9F4CED"/>
</g>
<defs>
<clipPath id="clip0_791_2984">
<rect width="24" height="24" fill="white"/>
</clipPath>
</defs>
</svg>
