<svg width="28" height="19" viewBox="0 0 28 19" fill="none" xmlns="http://www.w3.org/2000/svg">
<path d="M23.5102 2.32197H10.2218V1.78398H8.79949C9.07784 1.48276 9.32215 1.14522 9.52368 0.775191L8.10629 0.00322822C7.50809 1.10164 6.3604 1.78398 5.11107 1.78398C3.86025 1.78398 2.71185 1.10041 2.11409 0L0.695891 0.770403C0.897907 1.14232 1.14312 1.48147 1.42266 1.78398H0V2.59096C0 3.30294 0.579255 3.88214 1.29118 3.88214H1.88932L2.59613 7.76972C2.75903 8.66558 3.53821 9.31585 4.44875 9.31585H5.07272C5.96185 10.461 7.07324 11.4285 8.333 12.1503L9.00607 18.9997H11.4603L12.6758 13.5565C13.0685 13.5985 13.4626 13.6198 13.854 13.6198H21.0791L21.4503 14.7921L20.9294 18.9997H23.4974L25.9312 11.8014V14.4268H27.5451V6.3569C27.5451 4.13204 25.7351 2.32197 23.5102 2.32197ZM18.8692 3.93594C18.6297 4.86306 17.7862 5.54991 16.7853 5.54991C15.9844 5.54991 15.3327 6.20153 15.3327 7.00249C15.3327 7.5068 14.9225 7.91708 14.4182 7.91708C13.9138 7.91708 13.5036 7.5068 13.5036 7.00249C13.5036 6.20153 12.852 5.54991 12.051 5.54991C11.104 5.54991 10.3181 4.84724 10.1872 3.93594H18.8692ZM6.03782 7.48098C6.01452 7.60897 5.90321 7.70188 5.77313 7.70188H4.4487C4.31861 7.70188 4.2073 7.60897 4.18401 7.48103L3.44174 3.39795H6.78014L6.03782 7.48098ZM25.9312 6.76217L22.9959 15.4439L23.0954 14.6408L21.213 8.69571L19.6743 9.18291L20.5681 12.0059H13.854C13.3014 12.0059 12.7422 11.9563 12.1919 11.8585L11.4314 11.7233L10.3768 16.4458L9.85476 11.1331L9.46708 10.9312C8.49767 10.4264 7.62129 9.75448 6.88101 8.95524C7.26121 8.67844 7.53628 8.26123 7.62564 7.76977L8.32272 3.93594H8.56535C8.69937 5.68732 10.1283 7.08222 11.8945 7.16045C11.9763 8.48143 13.0769 9.53105 14.4182 9.53105C15.7593 9.53105 16.8599 8.48154 16.9418 7.16066C18.7651 7.08566 20.2578 5.70798 20.5125 3.93594H23.5102C24.8451 3.93594 25.9312 5.02198 25.9312 6.3569V6.76217Z" fill="#E661D4"/>
</svg>
