<svg width="24" height="24" viewBox="0 0 24 24" fill="none" xmlns="http://www.w3.org/2000/svg">
<path d="M5.22266 23.297H18.0258V21.7907C18.0258 20.9589 17.3513 20.2845 16.5195 20.2845V17.272C17.9308 16.331 18.7789 14.7468 18.7789 13.0503V6.72823H21.0382C22.2862 6.72823 23.2977 5.71667 23.2977 4.46886V2.96262H20.2851L18.0258 0.703249H15.7664H15.7656C14.767 0.703249 13.8094 1.0999 13.1033 1.80594C12.3973 2.51201 12.0008 3.46962 12.0008 4.46811V4.46886V4.46905C12.0008 6.36969 11.1234 8.16383 9.62314 9.33078C9.18744 9.66945 8.72731 10.0272 8.27544 10.3788C6.3493 11.877 5.22266 14.1806 5.22266 16.6208V23.297Z" stroke="#F18C54" stroke-width="1.5" stroke-miterlimit="10" stroke-linecap="round" stroke-linejoin="round"/>
<path d="M14.2594 23.297C14.2594 21.6332 12.9105 20.2845 11.2468 20.2845V19.5306C11.2468 18.7318 10.9294 17.9659 10.3646 17.401C9.80009 16.8362 9.03378 16.5189 8.23508 16.5189H8.23438" stroke="#F18C54" stroke-width="1.5" stroke-miterlimit="10" stroke-linecap="round" stroke-linejoin="round"/>
<path d="M15.7656 0.70311H15.7649C14.7662 0.70311 13.8086 1.09977 13.1025 1.8058C12.3965 2.51188 12 3.46948 12 4.46797V6.35155C12 7.39142 12.8431 8.23438 13.8828 8.23438C14.9225 8.23438 15.7656 7.39142 15.7656 6.35155V3.71562" stroke="#F18C54" stroke-width="1.5" stroke-miterlimit="10" stroke-linecap="round" stroke-linejoin="round"/>
<path d="M0.703125 21.0376C0.703125 21.6368 0.941109 22.2115 1.36472 22.6352C1.78875 23.059 2.36339 23.297 2.9625 23.297H5.22187V22.5439C5.22187 21.9447 4.98389 21.37 4.56023 20.9463C4.13625 20.5226 3.56161 20.2845 2.9625 20.2845H0.703125V21.0376Z" stroke="#F18C54" stroke-width="1.5" stroke-miterlimit="10" stroke-linecap="round" stroke-linejoin="round"/>
<path d="M13.5059 21.0376V17.272" stroke="#F18C54" stroke-width="1.5" stroke-miterlimit="10" stroke-linecap="round" stroke-linejoin="round"/>
</svg>
