<svg width="27" height="26" viewBox="0 0 27 26" fill="none" xmlns="http://www.w3.org/2000/svg">
<path d="M4.97236 17.3229C3.40589 17.8228 1.73232 16.583 1.23476 14.5541C0.58852 11.9201 1.26413 9.09304 2.83087 8.59344C4.39735 8.09353 6.30835 10.3019 6.90759 12.7443C7.40518 14.7732 6.53915 16.823 4.97236 17.3229Z" fill="white"/>
<path d="M19.3122 23.4737C17.0005 23.8434 15.9847 22.9114 14.5022 23.1482C13.0194 23.3853 12.229 24.6061 9.91742 24.9755C6.89125 25.4589 4.22765 21.8179 6.69531 18.7345C9.76203 14.903 10.3003 10.6144 13.1443 10.1599C15.9885 9.70549 17.391 13.6836 21.1448 16.4251C24.1654 18.6313 22.338 22.9903 19.3122 23.4737Z" fill="white"/>
<path d="M13.6433 5.51295C13.5838 2.97273 14.829 0.164752 16.443 0.0541657C18.0576 -0.056099 19.425 2.37347 19.4892 5.11303C19.5386 7.22355 18.2701 9.02396 16.6558 9.1342C15.0415 9.24481 13.6927 7.62347 13.6433 5.51295Z" fill="white"/>
<path d="M5.90147 7.28157C5.4015 4.60817 6.22728 1.82345 7.81367 1.42124C9.39978 1.01871 11.1821 3.34527 11.6457 5.82422C12.0311 7.88376 11.0576 9.87944 9.47146 10.282C7.88505 10.6845 6.28687 9.34114 5.90147 7.28157Z" fill="white"/>
<path d="M22.471 14.5357C20.8572 14.5459 19.6021 12.8399 19.6671 10.7254C19.7458 8.18048 21.1383 5.44855 22.7518 5.4387C24.3656 5.42851 25.5959 7.94407 25.5111 10.6888C25.4458 12.8032 24.0846 14.5255 22.471 14.5357Z" fill="white"/>
</svg>
