<svg width="23" height="23" viewBox="0 0 23 23" fill="none" xmlns="http://www.w3.org/2000/svg">
<path fill-rule="evenodd" clip-rule="evenodd" d="M8.79086 3.4315V11.869C8.79086 12.041 8.64945 12.1807 8.4753 12.1807C8.30111 12.1807 8.15974 12.041 8.15974 11.869V3.11976C8.15974 3.03711 8.19296 2.95779 8.25215 2.89936L10.8922 0.291291C10.9513 0.232818 11.0316 0.199951 11.1153 0.199951H21.2985C21.4728 0.199951 21.6141 0.339522 21.6141 0.511692V13.1944C21.6141 13.3664 21.4727 13.5061 21.2985 13.5061C21.1244 13.5061 20.983 13.3664 20.983 13.1944V0.823433H11.4308V3.11976C11.4308 3.29193 11.2896 3.4315 11.1153 3.4315H8.79086ZM10.7997 1.26432C10.3564 1.70228 9.68043 2.37007 9.23711 2.80802H10.7997V1.26432ZM6.05968 19.8227C6.11761 19.9602 6.17553 20.0977 6.23346 20.2352L6.2336 20.2355C6.33593 20.48 6.33611 20.7262 6.23509 20.9719L6.23455 20.9733C6.13226 21.2158 5.9559 21.3906 5.70778 21.4938L5.70697 21.4941L4.16383 22.1261C3.66903 22.3303 3.09611 22.0961 2.89086 21.6077C2.02027 19.5411 1.14842 17.4745 0.277875 15.4079C0.173469 15.164 0.173153 14.9165 0.276026 14.6708C0.378629 14.4257 0.555884 14.2507 0.802337 14.1493L2.34705 13.5159C2.84154 13.3132 3.41262 13.5452 3.61989 14.0341L3.62003 14.0344C3.67106 14.1556 3.72214 14.2768 3.77321 14.398C4.54223 14.0389 5.31013 13.6775 6.07451 13.3082C6.96475 12.8779 7.68843 12.5726 8.48206 12.5894C9.18283 12.6043 9.94487 12.8655 10.9234 13.5433L13.7802 14.2993C14.2654 14.4277 14.6452 14.7567 14.8525 15.1719L18.8716 14.0071C20.1145 13.6469 20.9457 13.7374 21.4528 14.0181C21.9945 14.3179 22.2194 14.8325 22.1978 15.38C22.1677 16.1416 21.6328 16.9643 20.8508 17.2624L14.8252 19.5562C13.8199 19.9384 12.4774 20.4762 11.3986 20.1667L8.18841 19.2468L8.18791 19.2466C7.79928 19.1346 7.42638 19.1657 7.06186 19.3411L6.05968 19.8227ZM5.65031 20.474C5.55465 20.2469 3.1305 14.4955 3.03746 14.2745C2.96438 14.1024 2.76328 14.0205 2.58905 14.0919L1.04487 14.725C0.957999 14.7608 0.895563 14.8227 0.859364 14.9091C0.82357 14.9946 0.823074 15.0807 0.85995 15.1666L0.860356 15.1675C1.73103 17.2344 2.60298 19.3012 3.4737 21.3682L3.47374 21.3683C3.54587 21.54 3.74711 21.6224 3.92144 21.5503L5.46412 20.9185L5.46476 20.9183C5.55203 20.8817 5.61483 20.8202 5.65161 20.734C5.68655 20.6475 5.68646 20.5604 5.65031 20.474ZM5.81665 19.246L6.78547 18.7804C7.29668 18.5345 7.8197 18.4908 8.36431 18.6479L11.5745 19.5678C12.0315 19.6989 12.5429 19.6362 13.0468 19.5087C13.5953 19.3698 14.135 19.1504 14.5984 18.9742L20.6236 16.6806C21.0829 16.5055 21.4164 16.0697 21.5285 15.6197C21.6297 15.2128 21.5445 14.7837 21.1443 14.5622C20.7326 14.3343 20.0583 14.3131 19.0494 14.6055L15.0214 15.7728C15.0368 15.9569 15.0209 16.1463 14.97 16.3341C14.9344 16.4656 14.8835 16.5892 14.8198 16.7036C14.4554 17.3575 13.6701 17.7106 12.9103 17.5083L9.04142 16.4849C8.87318 16.4403 8.77315 16.2692 8.81818 16.103C8.86326 15.9368 9.03646 15.838 9.2047 15.8824L13.0736 16.9059L13.0741 16.906C13.549 17.0325 14.0391 16.8113 14.2667 16.4029C14.3064 16.3316 14.3381 16.2546 14.3602 16.1728C14.5097 15.6216 14.1749 15.0493 13.6169 14.9017L10.7058 14.1313C10.6696 14.1217 10.6354 14.1058 10.6048 14.0844C9.74169 13.4792 9.08222 13.2259 8.46849 13.2129C7.76853 13.198 7.13705 13.4889 6.35193 13.8684C5.57606 14.2433 4.79662 14.61 4.01606 14.9743C4.61608 16.3982 5.21654 17.822 5.81665 19.246ZM10.2187 7.7562C10.0445 7.7562 9.90313 7.61649 9.90313 7.44446C9.90313 7.27238 10.0445 7.13272 10.2187 7.13272H19.5551C19.7293 7.13272 19.8707 7.27238 19.8707 7.44446C19.8707 7.61649 19.7293 7.7562 19.5551 7.7562H10.2187ZM10.2187 5.58105C10.0445 5.58105 9.90313 5.44139 9.90313 5.26931C9.90313 5.09727 10.0445 4.95757 10.2187 4.95757H19.5551C19.7293 4.95757 19.8707 5.09727 19.8707 5.26931C19.8707 5.44139 19.7293 5.58105 19.5551 5.58105H10.2187ZM10.2187 9.93224C10.0445 9.93224 9.90313 9.79258 9.90313 9.6205C9.90313 9.44846 10.0445 9.30876 10.2187 9.30876H19.5551C19.7293 9.30876 19.8707 9.44846 19.8707 9.6205C19.8707 9.79258 19.7293 9.93224 19.5551 9.93224H10.2187ZM13.1311 12.102C12.9982 11.9909 12.9816 11.794 13.094 11.6627C13.2066 11.5313 13.4058 11.5149 13.5388 11.6261L14.57 12.4881L16.2295 11.0335C16.3597 10.9193 16.5593 10.9311 16.6749 11.0599C16.7905 11.1886 16.7786 11.3857 16.6483 11.4999L14.7843 13.1337C14.6669 13.2366 14.4908 13.2387 14.3711 13.1385L13.1311 12.102Z" fill="black" stroke="black" stroke-width="0.4"/>
</svg>
