<svg width="28" height="28" viewBox="0 0 28 28" fill="none" xmlns="http://www.w3.org/2000/svg">
<path d="M26.8885 16.6307C26.1899 16.0697 25.7608 15.3441 25.6971 14.4335C25.6333 13.5141 25.7985 12.5946 25.6797 11.6752C25.5753 10.8704 25.2564 10.1184 24.6071 9.61606C23.9867 9.13725 23.1925 8.95219 22.4214 8.99038C21.2937 8.10326 19.4414 8.14733 18.2152 8.50276C16.4991 9.00213 14.6148 9.70124 12.7944 9.46037C12.6378 9.21069 12.806 8.84644 12.8031 8.57032C12.7973 8.1297 12.461 7.90058 12.3508 7.50108C12.145 6.74909 12.4175 5.80323 11.487 5.46836C11.2058 5.36849 10.7826 5.41842 10.5507 5.2128C10.2898 4.98074 10.1535 4.53425 9.98539 4.23462C9.61144 3.56782 9.04616 3.21826 8.28377 3.27995C8.07506 3.29757 7.86344 3.31814 7.66052 3.26526C7.42282 3.20358 7.23439 3.04201 6.98799 3.00383C6.49809 2.92745 6.05457 3.1977 5.64004 3.42976C5.45451 3.24176 5.2429 3.07726 5.00229 2.95389C4.68632 2.78939 4.38484 2.99795 4.34716 3.33576C4.28918 3.87332 4.2283 4.40794 4.17033 4.94549C3.88914 5.04536 3.65144 5.2363 3.43982 5.4713C3.12675 5.82085 2.81367 6.12048 2.45712 6.42303C1.77589 7.00171 0.775794 7.77427 0.993206 8.79357C1.07727 9.19306 1.13815 9.67187 1.33237 10.0332C1.53529 10.4092 1.92083 10.556 2.32957 10.5443C3.2514 10.5208 4.84286 10.0626 5.46611 9.74237C5.61105 10.2153 5.75309 10.6912 5.89803 11.1641C6.07486 11.7487 6.28068 12.3303 6.28648 12.9471C6.29807 14.0134 5.9821 15.0886 6.34735 16.1284C6.49229 16.5426 6.7213 16.9274 7.06336 17.2035C7.24599 17.3504 7.44311 17.4268 7.64023 17.5413C7.87793 17.6794 7.89243 17.8997 7.95041 18.1582C8.2055 19.3156 8.36204 20.4905 8.50698 21.6685C8.58235 22.2853 8.7157 22.9316 8.66062 23.5543C8.60264 24.1741 8.24319 24.8204 7.99389 25.3785C7.86344 25.6722 8.01418 26.0453 8.37074 26.0424C8.89543 26.0365 9.42011 26.0394 9.9448 26.0247C10.3274 26.013 10.5652 25.9337 10.7072 25.5459C10.9652 24.8439 11.0261 23.9244 10.9449 23.1842C10.8724 22.5438 10.6811 21.924 10.6202 21.2807C10.5594 20.611 10.5825 19.9354 10.6028 19.2627C10.6115 18.9866 10.6202 18.7075 10.626 18.4314C11.2783 19.5535 11.4696 20.9165 11.5363 22.2148C11.5595 22.6496 11.5855 23.0843 11.5826 23.5191C11.5826 23.7864 11.5739 23.9773 11.3942 24.1683C10.9942 24.5942 10.8058 24.9878 10.8579 25.5929C10.8782 25.8397 11.0406 26.0189 11.2928 26.0335C11.9131 26.0659 12.5335 26.0012 13.1567 26.0335C13.3393 26.0424 13.5365 25.8896 13.577 25.7104C13.7394 24.9996 13.6988 24.3063 13.6437 23.5866C13.5828 22.7818 13.6205 21.974 13.6698 21.1691C13.7452 19.9177 13.951 18.5048 13.5741 17.274C14.5076 17.1536 15.4381 16.9245 16.3454 16.6572C16.9339 17.4356 17.5571 18.1876 18.1688 18.9454C18.4877 19.342 18.8123 19.7386 19.108 20.1527C19.4414 20.6198 19.2906 21.3395 19.2703 21.8917C19.2588 22.2001 19.2066 23.1049 19.195 23.2488C19.1805 23.4486 19.195 23.5396 19.0674 23.6748C18.9138 23.8363 18.737 23.9509 18.6036 24.1359C18.4558 24.3416 18.3427 24.5824 18.2847 24.8292C18.2036 25.1758 18.1514 25.6722 18.4819 25.9014C18.6732 26.0335 18.908 26.0277 19.1312 26.0306C19.4501 26.0335 19.7718 26.0306 20.0907 26.0306C20.2936 26.0306 20.4444 25.8925 20.511 25.7075C20.9546 24.462 21.3227 23.1754 21.5865 21.8741C21.7199 22.209 21.7199 22.6878 21.6068 23.4985C21.5604 23.8275 21.5923 24.1301 21.4822 24.2828C21.1836 24.697 21.0096 25.2375 21.3285 25.7369C21.6474 26.2362 22.5054 26.0218 23.0156 26.0306C23.2504 26.0335 23.4157 25.822 23.4505 25.59C23.5345 25.0407 23.7027 24.6324 23.8215 24.1418C23.9839 23.4779 24.0505 22.7876 24.0679 22.1062C24.1056 20.655 24.0186 19.2774 23.4563 17.9291C23.2099 17.3357 22.891 16.7218 22.833 16.0726C22.7837 15.5115 22.9809 14.2984 23.4737 13.0382C23.5954 13.799 23.5838 14.6186 23.7259 15.3235C23.836 15.8787 24.0418 16.4339 24.4796 16.8099C25.0999 17.3416 25.9145 17.559 26.7088 17.3592C27.0015 17.2858 27.161 16.8305 26.9001 16.6219L26.8885 16.6307ZM7.33006 4.08188C7.76488 4.22581 8.16202 4.0995 8.59395 4.1465C8.97949 4.19056 9.14762 4.50487 9.31286 4.82212C9.51867 5.2128 9.71579 5.69748 10.0868 5.95892C10.255 6.07641 10.4492 6.14691 10.6492 6.18804C10.8203 6.22329 11.1159 6.2086 11.2609 6.31729C11.5276 6.51997 11.4203 7.19265 11.4667 7.48933C11.5044 7.73021 11.5797 7.96227 11.6957 8.17964C11.8117 8.39407 11.9537 8.46751 11.9276 8.71426C11.9102 8.89344 11.8841 9.06969 11.8754 9.243C10.5594 8.78476 10.1448 7.34834 9.34474 6.32904C8.55336 5.32442 7.39963 4.45493 6.15023 4.13769C6.32996 4.03194 6.51548 3.91738 6.7126 3.87332C6.93002 3.82632 7.12714 4.0055 7.33295 4.07306L7.33006 4.08188ZM12.7944 21.175C12.7509 21.9182 12.7161 22.6613 12.7567 23.4045C12.7886 23.992 12.8581 24.5707 12.7886 25.1494C12.4407 25.1494 12.0899 25.1641 11.7421 25.1641C11.8059 24.838 12.1827 24.6236 12.2842 24.4326C12.4697 24.0831 12.4552 23.6513 12.4436 23.2664C12.4291 22.7759 12.4117 22.2853 12.3769 21.7948C12.261 20.1704 11.9015 18.5136 10.8608 17.2476C11.4638 17.3504 12.0696 17.3827 12.6755 17.3533C13.0929 18.5459 12.8668 19.9442 12.7944 21.172V21.175ZM19.7747 25.1582C19.5805 25.1582 19.1283 25.1582 19.0993 25.1523C19.1283 24.9496 19.2153 24.7499 19.3457 24.5942C19.4878 24.4238 19.6936 24.3327 19.8327 24.1594C20.14 23.7717 20.0704 23.0843 20.0965 22.6173C20.1313 22.021 20.1516 21.4276 20.1545 20.8313C20.1574 20.2996 20.0327 19.9618 19.7168 19.5447C19.4095 19.1334 19.0935 18.7339 18.7717 18.3344C18.2529 17.6882 17.7224 17.0537 17.2151 16.3957C17.4151 16.3311 17.8267 16.193 17.8354 16.1901C18.0847 16.9392 19.308 18.1934 19.7081 18.5665C20.1168 18.9454 20.8705 19.5887 21.0096 20.0235C20.798 21.7683 20.3429 23.5044 19.7689 25.167L19.7747 25.1582ZM23.0301 19.4066C23.2012 20.1616 23.1983 20.9517 23.1954 21.7213C23.1954 22.4586 23.0069 24.2476 22.6156 25.1582C22.4243 25.1582 22.2359 25.1582 22.0445 25.1582C22.0068 24.7234 22.3837 24.3034 22.4098 24.0919C22.4533 23.7364 22.4823 23.3781 22.5083 23.0226C22.5779 22.0327 22.4272 20.9253 21.9808 20.047C21.4909 19.0776 20.5139 18.1758 19.7921 17.4033C18.966 16.522 18.3195 15.4822 18.047 14.2896C17.9224 13.7373 17.0817 13.9723 17.2093 14.5246C17.2759 14.8212 17.3658 15.1062 17.4731 15.3852C15.3192 16.0961 12.9538 16.8305 10.684 16.3193C10.6985 15.8611 10.7101 15.3999 10.7246 14.9417C10.742 14.3747 9.87233 14.3747 9.85494 14.9417C9.81725 16.2107 9.78247 17.4826 9.74478 18.7516C9.71 19.9824 9.66651 21.1926 9.92161 22.4028C10.0955 23.2341 10.2086 24.5795 9.89842 25.1406C9.85494 25.1464 9.29546 25.1552 9.04037 25.1582C9.17371 24.8497 9.30416 24.5354 9.40852 24.2211C9.58535 23.6836 9.54766 23.1108 9.48389 22.5585C9.33895 21.3248 9.1998 20.0881 8.97949 18.8661C8.88673 18.3491 8.83745 17.7058 8.57365 17.2417C8.31856 16.7923 7.78517 16.757 7.4663 16.3898C6.76478 15.582 7.09525 14.3101 7.14743 13.3554C7.2257 11.9513 6.63434 10.5707 6.2285 9.24594C6.66622 8.84938 6.93292 8.3177 6.76188 7.63327C6.62564 7.08396 5.78498 7.31602 5.92412 7.86827C6.15313 8.78476 4.67762 9.1255 4.08046 9.337C3.005 9.72181 2.18753 9.80405 2.06867 9.52793C1.87155 9.06969 1.81358 8.59382 1.82517 8.45576C1.85996 8.04451 2.40204 7.65677 2.67453 7.40415C3.02529 7.08396 3.42533 6.8049 3.7442 6.45535C3.95581 6.22329 4.21381 5.75917 4.56457 5.75329C4.81967 5.74742 4.9733 5.55355 4.99939 5.31267C5.03998 4.9308 5.08346 4.54893 5.12404 4.16706C5.55307 4.58125 5.54727 5.10118 5.54727 5.32736C5.54727 5.89429 6.35895 6.03235 6.40533 5.15993C7.28657 5.50948 8.06926 6.14691 8.65772 6.8754C9.38823 7.77721 9.75638 8.91988 10.713 9.63368C11.6667 10.3445 12.9828 10.4121 14.1249 10.368C15.1047 10.3299 16.0961 10.0361 17.0353 9.77468C18.0963 9.478 19.2298 8.95807 20.3487 9.09613C21.4126 9.22537 22.3547 9.79524 22.6475 10.8909C22.9287 11.9396 22.6272 12.9736 22.3112 13.9723C21.9547 15.0915 21.8097 16.1284 22.2272 17.2535C22.4939 17.9761 22.8591 18.6576 23.0301 19.4125V19.4066ZM24.4651 14.4922C24.3404 13.4024 24.5288 11.8897 23.5664 11.0672C23.4997 10.6647 23.3722 10.274 23.1809 9.91862C23.6273 10.0067 24.0476 10.2036 24.352 10.5649C24.8477 11.1524 24.8796 12.0042 24.8593 12.7386C24.8361 13.6081 24.7375 14.4952 24.9753 15.3441C25.0854 15.7436 25.2738 16.1137 25.5115 16.4457C24.7086 16.0344 24.5201 14.9622 24.4651 14.4893V14.4922Z" fill="#F7CE45"/>
<path d="M26.8885 16.6307C26.1899 16.0697 25.7608 15.3441 25.6971 14.4335C25.6333 13.5141 25.7985 12.5946 25.6797 11.6752C25.5753 10.8704 25.2564 10.1184 24.6071 9.61606C23.9867 9.13725 23.1925 8.95219 22.4214 8.99038C21.2937 8.10326 19.4414 8.14733 18.2152 8.50276C16.4991 9.00213 14.6148 9.70124 12.7944 9.46037C12.6378 9.21069 12.806 8.84644 12.8031 8.57032C12.7973 8.1297 12.461 7.90058 12.3508 7.50108C12.145 6.74909 12.4175 5.80323 11.487 5.46836C11.2058 5.36849 10.7826 5.41842 10.5507 5.2128C10.2898 4.98074 10.1535 4.53425 9.98539 4.23462C9.61144 3.56782 9.04616 3.21826 8.28377 3.27995C8.07506 3.29757 7.86344 3.31814 7.66052 3.26526C7.42282 3.20358 7.23439 3.04201 6.98799 3.00383C6.49809 2.92745 6.05457 3.1977 5.64004 3.42976C5.45451 3.24176 5.2429 3.07726 5.00229 2.95389C4.68632 2.78939 4.38484 2.99795 4.34716 3.33576C4.28918 3.87332 4.2283 4.40794 4.17033 4.94549C3.88914 5.04536 3.65144 5.2363 3.43982 5.4713C3.12675 5.82085 2.81367 6.12048 2.45712 6.42303C1.77589 7.00171 0.775794 7.77427 0.993206 8.79357C1.07727 9.19306 1.13815 9.67187 1.33237 10.0332C1.53529 10.4092 1.92083 10.556 2.32957 10.5443C3.2514 10.5208 4.84286 10.0626 5.46611 9.74237C5.61105 10.2153 5.75309 10.6912 5.89803 11.1641C6.07486 11.7487 6.28068 12.3303 6.28648 12.9471C6.29807 14.0134 5.9821 15.0886 6.34735 16.1284C6.49229 16.5426 6.7213 16.9274 7.06336 17.2035C7.24599 17.3504 7.44311 17.4268 7.64023 17.5413C7.87793 17.6794 7.89243 17.8997 7.95041 18.1582C8.2055 19.3156 8.36204 20.4905 8.50698 21.6685C8.58235 22.2853 8.7157 22.9316 8.66062 23.5543C8.60264 24.1741 8.24319 24.8204 7.99389 25.3785C7.86344 25.6722 8.01418 26.0453 8.37074 26.0424C8.89543 26.0365 9.42011 26.0394 9.9448 26.0247C10.3274 26.013 10.5652 25.9337 10.7072 25.5459C10.9652 24.8439 11.0261 23.9244 10.9449 23.1842C10.8724 22.5438 10.6811 21.924 10.6202 21.2807C10.5594 20.611 10.5825 19.9354 10.6028 19.2627C10.6115 18.9866 10.6202 18.7075 10.626 18.4314C11.2783 19.5535 11.4696 20.9165 11.5363 22.2148C11.5595 22.6496 11.5855 23.0843 11.5826 23.5191C11.5826 23.7864 11.5739 23.9773 11.3942 24.1683C10.9942 24.5942 10.8058 24.9878 10.8579 25.5929C10.8782 25.8397 11.0406 26.0189 11.2928 26.0335C11.9131 26.0659 12.5335 26.0012 13.1567 26.0335C13.3393 26.0424 13.5365 25.8896 13.577 25.7104C13.7394 24.9996 13.6988 24.3063 13.6437 23.5866C13.5828 22.7818 13.6205 21.974 13.6698 21.1691C13.7452 19.9177 13.951 18.5048 13.5741 17.274C14.5076 17.1536 15.4381 16.9245 16.3454 16.6572C16.9339 17.4356 17.5571 18.1876 18.1688 18.9454C18.4877 19.342 18.8123 19.7386 19.108 20.1527C19.4414 20.6198 19.2906 21.3395 19.2703 21.8917C19.2588 22.2001 19.2066 23.1049 19.195 23.2488C19.1805 23.4486 19.195 23.5396 19.0674 23.6748C18.9138 23.8363 18.737 23.9509 18.6036 24.1359C18.4558 24.3416 18.3427 24.5824 18.2847 24.8292C18.2036 25.1758 18.1514 25.6722 18.4819 25.9014C18.6732 26.0335 18.908 26.0277 19.1312 26.0306C19.4501 26.0335 19.7718 26.0306 20.0907 26.0306C20.2936 26.0306 20.4444 25.8925 20.511 25.7075C20.9546 24.462 21.3227 23.1754 21.5865 21.8741C21.7199 22.209 21.7199 22.6878 21.6068 23.4985C21.5604 23.8275 21.5923 24.1301 21.4822 24.2828C21.1836 24.697 21.0096 25.2375 21.3285 25.7369C21.6474 26.2362 22.5054 26.0218 23.0156 26.0306C23.2504 26.0335 23.4157 25.822 23.4505 25.59C23.5345 25.0407 23.7027 24.6324 23.8215 24.1418C23.9839 23.4779 24.0505 22.7876 24.0679 22.1062C24.1056 20.655 24.0186 19.2774 23.4563 17.9291C23.2099 17.3357 22.891 16.7218 22.833 16.0726C22.7837 15.5115 22.9809 14.2984 23.4737 13.0382C23.5954 13.799 23.5838 14.6186 23.7259 15.3235C23.836 15.8787 24.0418 16.4339 24.4796 16.8099C25.0999 17.3416 25.9145 17.559 26.7088 17.3592C27.0015 17.2858 27.161 16.8305 26.9001 16.6219L26.8885 16.6307ZM7.33006 4.08188C7.76488 4.22581 8.16202 4.0995 8.59395 4.1465C8.97949 4.19056 9.14762 4.50487 9.31286 4.82212C9.51867 5.2128 9.71579 5.69748 10.0868 5.95892C10.255 6.07641 10.4492 6.14691 10.6492 6.18804C10.8203 6.22329 11.1159 6.2086 11.2609 6.31729C11.5276 6.51997 11.4203 7.19265 11.4667 7.48933C11.5044 7.73021 11.5797 7.96227 11.6957 8.17964C11.8117 8.39407 11.9537 8.46751 11.9276 8.71426C11.9102 8.89344 11.8841 9.06969 11.8754 9.243C10.5594 8.78476 10.1448 7.34834 9.34474 6.32904C8.55336 5.32442 7.39963 4.45493 6.15023 4.13769C6.32996 4.03194 6.51548 3.91738 6.7126 3.87332C6.93002 3.82632 7.12714 4.0055 7.33295 4.07306L7.33006 4.08188ZM12.7944 21.175C12.7509 21.9182 12.7161 22.6613 12.7567 23.4045C12.7886 23.992 12.8581 24.5707 12.7886 25.1494C12.4407 25.1494 12.0899 25.1641 11.7421 25.1641C11.8059 24.838 12.1827 24.6236 12.2842 24.4326C12.4697 24.0831 12.4552 23.6513 12.4436 23.2664C12.4291 22.7759 12.4117 22.2853 12.3769 21.7948C12.261 20.1704 11.9015 18.5136 10.8608 17.2476C11.4638 17.3504 12.0696 17.3827 12.6755 17.3533C13.0929 18.5459 12.8668 19.9442 12.7944 21.172V21.175ZM19.7747 25.1582C19.5805 25.1582 19.1283 25.1582 19.0993 25.1523C19.1283 24.9496 19.2153 24.7499 19.3457 24.5942C19.4878 24.4238 19.6936 24.3327 19.8327 24.1594C20.14 23.7717 20.0704 23.0843 20.0965 22.6173C20.1313 22.021 20.1516 21.4276 20.1545 20.8313C20.1574 20.2996 20.0327 19.9618 19.7168 19.5447C19.4095 19.1334 19.0935 18.7339 18.7717 18.3344C18.2529 17.6882 17.7224 17.0537 17.2151 16.3957C17.4151 16.3311 17.8267 16.193 17.8354 16.1901C18.0847 16.9392 19.308 18.1934 19.7081 18.5665C20.1168 18.9454 20.8705 19.5887 21.0096 20.0235C20.798 21.7683 20.3429 23.5044 19.7689 25.167L19.7747 25.1582ZM23.0301 19.4066C23.2012 20.1616 23.1983 20.9517 23.1954 21.7213C23.1954 22.4586 23.0069 24.2476 22.6156 25.1582C22.4243 25.1582 22.2359 25.1582 22.0445 25.1582C22.0068 24.7234 22.3837 24.3034 22.4098 24.0919C22.4533 23.7364 22.4823 23.3781 22.5083 23.0226C22.5779 22.0327 22.4272 20.9253 21.9808 20.047C21.4909 19.0776 20.5139 18.1758 19.7921 17.4033C18.966 16.522 18.3195 15.4822 18.047 14.2896C17.9224 13.7373 17.0817 13.9723 17.2093 14.5246C17.2759 14.8212 17.3658 15.1062 17.4731 15.3852C15.3192 16.0961 12.9538 16.8305 10.684 16.3193C10.6985 15.8611 10.7101 15.3999 10.7246 14.9417C10.742 14.3747 9.87233 14.3747 9.85494 14.9417C9.81725 16.2107 9.78247 17.4826 9.74478 18.7516C9.71 19.9824 9.66651 21.1926 9.92161 22.4028C10.0955 23.2341 10.2086 24.5795 9.89842 25.1406C9.85494 25.1464 9.29546 25.1552 9.04037 25.1582C9.17371 24.8497 9.30416 24.5354 9.40852 24.2211C9.58535 23.6836 9.54766 23.1108 9.48389 22.5585C9.33895 21.3248 9.1998 20.0881 8.97949 18.8661C8.88673 18.3491 8.83745 17.7058 8.57365 17.2417C8.31856 16.7923 7.78517 16.757 7.4663 16.3898C6.76478 15.582 7.09525 14.3101 7.14743 13.3554C7.2257 11.9513 6.63434 10.5707 6.2285 9.24594C6.66622 8.84938 6.93292 8.3177 6.76188 7.63327C6.62564 7.08396 5.78498 7.31602 5.92412 7.86827C6.15313 8.78476 4.67762 9.1255 4.08046 9.337C3.005 9.72181 2.18753 9.80405 2.06867 9.52793C1.87155 9.06969 1.81358 8.59382 1.82517 8.45576C1.85996 8.04451 2.40204 7.65677 2.67453 7.40415C3.02529 7.08396 3.42533 6.8049 3.7442 6.45535C3.95581 6.22329 4.21381 5.75917 4.56457 5.75329C4.81967 5.74742 4.9733 5.55355 4.99939 5.31267C5.03998 4.9308 5.08346 4.54893 5.12404 4.16706C5.55307 4.58125 5.54727 5.10118 5.54727 5.32736C5.54727 5.89429 6.35895 6.03235 6.40533 5.15993C7.28657 5.50948 8.06926 6.14691 8.65772 6.8754C9.38823 7.77721 9.75638 8.91988 10.713 9.63368C11.6667 10.3445 12.9828 10.4121 14.1249 10.368C15.1047 10.3299 16.0961 10.0361 17.0353 9.77468C18.0963 9.478 19.2298 8.95807 20.3487 9.09613C21.4126 9.22537 22.3547 9.79524 22.6475 10.8909C22.9287 11.9396 22.6272 12.9736 22.3112 13.9723C21.9547 15.0915 21.8097 16.1284 22.2272 17.2535C22.4939 17.9761 22.8591 18.6576 23.0301 19.4125V19.4066ZM24.4651 14.4922C24.3404 13.4024 24.5288 11.8897 23.5664 11.0672C23.4997 10.6647 23.3722 10.274 23.1809 9.91862C23.6273 10.0067 24.0476 10.2036 24.352 10.5649C24.8477 11.1524 24.8796 12.0042 24.8593 12.7386C24.8361 13.6081 24.7375 14.4952 24.9753 15.3441C25.0854 15.7436 25.2738 16.1137 25.5115 16.4457C24.7086 16.0344 24.5201 14.9622 24.4651 14.4893V14.4922Z" fill="black" fill-opacity="0.1"/>
<path d="M26.8885 16.6307C26.1899 16.0697 25.7608 15.3441 25.6971 14.4335C25.6333 13.5141 25.7985 12.5946 25.6797 11.6752C25.5753 10.8704 25.2564 10.1184 24.6071 9.61606C23.9867 9.13725 23.1925 8.95219 22.4214 8.99038C21.2937 8.10326 19.4414 8.14733 18.2152 8.50276C16.4991 9.00213 14.6148 9.70124 12.7944 9.46037C12.6378 9.21069 12.806 8.84644 12.8031 8.57032C12.7973 8.1297 12.461 7.90058 12.3508 7.50108C12.145 6.74909 12.4175 5.80323 11.487 5.46836C11.2058 5.36849 10.7826 5.41842 10.5507 5.2128C10.2898 4.98074 10.1535 4.53425 9.98539 4.23462C9.61144 3.56782 9.04616 3.21826 8.28377 3.27995C8.07506 3.29757 7.86344 3.31814 7.66052 3.26526C7.42282 3.20358 7.23439 3.04201 6.98799 3.00383C6.49809 2.92745 6.05457 3.1977 5.64004 3.42976C5.45451 3.24176 5.2429 3.07726 5.00229 2.95389C4.68632 2.78939 4.38484 2.99795 4.34716 3.33576C4.28918 3.87332 4.2283 4.40794 4.17033 4.94549C3.88914 5.04536 3.65144 5.2363 3.43982 5.4713C3.12675 5.82085 2.81367 6.12048 2.45712 6.42303C1.77589 7.00171 0.775794 7.77427 0.993206 8.79357C1.07727 9.19306 1.13815 9.67187 1.33237 10.0332C1.53529 10.4092 1.92083 10.556 2.32957 10.5443C3.2514 10.5208 4.84286 10.0626 5.46611 9.74237C5.61105 10.2153 5.75309 10.6912 5.89803 11.1641C6.07486 11.7487 6.28068 12.3303 6.28648 12.9471C6.29807 14.0134 5.9821 15.0886 6.34735 16.1284C6.49229 16.5426 6.7213 16.9274 7.06336 17.2035C7.24599 17.3504 7.44311 17.4268 7.64023 17.5413C7.87793 17.6794 7.89243 17.8997 7.95041 18.1582C8.2055 19.3156 8.36204 20.4905 8.50698 21.6685C8.58235 22.2853 8.7157 22.9316 8.66062 23.5543C8.60264 24.1741 8.24319 24.8204 7.99389 25.3785C7.86344 25.6722 8.01418 26.0453 8.37074 26.0424C8.89543 26.0365 9.42011 26.0394 9.9448 26.0247C10.3274 26.013 10.5652 25.9337 10.7072 25.5459C10.9652 24.8439 11.0261 23.9244 10.9449 23.1842C10.8724 22.5438 10.6811 21.924 10.6202 21.2807C10.5594 20.611 10.5825 19.9354 10.6028 19.2627C10.6115 18.9866 10.6202 18.7075 10.626 18.4314C11.2783 19.5535 11.4696 20.9165 11.5363 22.2148C11.5595 22.6496 11.5855 23.0843 11.5826 23.5191C11.5826 23.7864 11.5739 23.9773 11.3942 24.1683C10.9942 24.5942 10.8058 24.9878 10.8579 25.5929C10.8782 25.8397 11.0406 26.0189 11.2928 26.0335C11.9131 26.0659 12.5335 26.0012 13.1567 26.0335C13.3393 26.0424 13.5365 25.8896 13.577 25.7104C13.7394 24.9996 13.6988 24.3063 13.6437 23.5866C13.5828 22.7818 13.6205 21.974 13.6698 21.1691C13.7452 19.9177 13.951 18.5048 13.5741 17.274C14.5076 17.1536 15.4381 16.9245 16.3454 16.6572C16.9339 17.4356 17.5571 18.1876 18.1688 18.9454C18.4877 19.342 18.8123 19.7386 19.108 20.1527C19.4414 20.6198 19.2906 21.3395 19.2703 21.8917C19.2588 22.2001 19.2066 23.1049 19.195 23.2488C19.1805 23.4486 19.195 23.5396 19.0674 23.6748C18.9138 23.8363 18.737 23.9509 18.6036 24.1359C18.4558 24.3416 18.3427 24.5824 18.2847 24.8292C18.2036 25.1758 18.1514 25.6722 18.4819 25.9014C18.6732 26.0335 18.908 26.0277 19.1312 26.0306C19.4501 26.0335 19.7718 26.0306 20.0907 26.0306C20.2936 26.0306 20.4444 25.8925 20.511 25.7075C20.9546 24.462 21.3227 23.1754 21.5865 21.8741C21.7199 22.209 21.7199 22.6878 21.6068 23.4985C21.5604 23.8275 21.5923 24.1301 21.4822 24.2828C21.1836 24.697 21.0096 25.2375 21.3285 25.7369C21.6474 26.2362 22.5054 26.0218 23.0156 26.0306C23.2504 26.0335 23.4157 25.822 23.4505 25.59C23.5345 25.0407 23.7027 24.6324 23.8215 24.1418C23.9839 23.4779 24.0505 22.7876 24.0679 22.1062C24.1056 20.655 24.0186 19.2774 23.4563 17.9291C23.2099 17.3357 22.891 16.7218 22.833 16.0726C22.7837 15.5115 22.9809 14.2984 23.4737 13.0382C23.5954 13.799 23.5838 14.6186 23.7259 15.3235C23.836 15.8787 24.0418 16.4339 24.4796 16.8099C25.0999 17.3416 25.9145 17.559 26.7088 17.3592C27.0015 17.2858 27.161 16.8305 26.9001 16.6219L26.8885 16.6307ZM7.33006 4.08188C7.76488 4.22581 8.16202 4.0995 8.59395 4.1465C8.97949 4.19056 9.14762 4.50487 9.31286 4.82212C9.51867 5.2128 9.71579 5.69748 10.0868 5.95892C10.255 6.07641 10.4492 6.14691 10.6492 6.18804C10.8203 6.22329 11.1159 6.2086 11.2609 6.31729C11.5276 6.51997 11.4203 7.19265 11.4667 7.48933C11.5044 7.73021 11.5797 7.96227 11.6957 8.17964C11.8117 8.39407 11.9537 8.46751 11.9276 8.71426C11.9102 8.89344 11.8841 9.06969 11.8754 9.243C10.5594 8.78476 10.1448 7.34834 9.34474 6.32904C8.55336 5.32442 7.39963 4.45493 6.15023 4.13769C6.32996 4.03194 6.51548 3.91738 6.7126 3.87332C6.93002 3.82632 7.12714 4.0055 7.33295 4.07306L7.33006 4.08188ZM12.7944 21.175C12.7509 21.9182 12.7161 22.6613 12.7567 23.4045C12.7886 23.992 12.8581 24.5707 12.7886 25.1494C12.4407 25.1494 12.0899 25.1641 11.7421 25.1641C11.8059 24.838 12.1827 24.6236 12.2842 24.4326C12.4697 24.0831 12.4552 23.6513 12.4436 23.2664C12.4291 22.7759 12.4117 22.2853 12.3769 21.7948C12.261 20.1704 11.9015 18.5136 10.8608 17.2476C11.4638 17.3504 12.0696 17.3827 12.6755 17.3533C13.0929 18.5459 12.8668 19.9442 12.7944 21.172V21.175ZM19.7747 25.1582C19.5805 25.1582 19.1283 25.1582 19.0993 25.1523C19.1283 24.9496 19.2153 24.7499 19.3457 24.5942C19.4878 24.4238 19.6936 24.3327 19.8327 24.1594C20.14 23.7717 20.0704 23.0843 20.0965 22.6173C20.1313 22.021 20.1516 21.4276 20.1545 20.8313C20.1574 20.2996 20.0327 19.9618 19.7168 19.5447C19.4095 19.1334 19.0935 18.7339 18.7717 18.3344C18.2529 17.6882 17.7224 17.0537 17.2151 16.3957C17.4151 16.3311 17.8267 16.193 17.8354 16.1901C18.0847 16.9392 19.308 18.1934 19.7081 18.5665C20.1168 18.9454 20.8705 19.5887 21.0096 20.0235C20.798 21.7683 20.3429 23.5044 19.7689 25.167L19.7747 25.1582ZM23.0301 19.4066C23.2012 20.1616 23.1983 20.9517 23.1954 21.7213C23.1954 22.4586 23.0069 24.2476 22.6156 25.1582C22.4243 25.1582 22.2359 25.1582 22.0445 25.1582C22.0068 24.7234 22.3837 24.3034 22.4098 24.0919C22.4533 23.7364 22.4823 23.3781 22.5083 23.0226C22.5779 22.0327 22.4272 20.9253 21.9808 20.047C21.4909 19.0776 20.5139 18.1758 19.7921 17.4033C18.966 16.522 18.3195 15.4822 18.047 14.2896C17.9224 13.7373 17.0817 13.9723 17.2093 14.5246C17.2759 14.8212 17.3658 15.1062 17.4731 15.3852C15.3192 16.0961 12.9538 16.8305 10.684 16.3193C10.6985 15.8611 10.7101 15.3999 10.7246 14.9417C10.742 14.3747 9.87233 14.3747 9.85494 14.9417C9.81725 16.2107 9.78247 17.4826 9.74478 18.7516C9.71 19.9824 9.66651 21.1926 9.92161 22.4028C10.0955 23.2341 10.2086 24.5795 9.89842 25.1406C9.85494 25.1464 9.29546 25.1552 9.04037 25.1582C9.17371 24.8497 9.30416 24.5354 9.40852 24.2211C9.58535 23.6836 9.54766 23.1108 9.48389 22.5585C9.33895 21.3248 9.1998 20.0881 8.97949 18.8661C8.88673 18.3491 8.83745 17.7058 8.57365 17.2417C8.31856 16.7923 7.78517 16.757 7.4663 16.3898C6.76478 15.582 7.09525 14.3101 7.14743 13.3554C7.2257 11.9513 6.63434 10.5707 6.2285 9.24594C6.66622 8.84938 6.93292 8.3177 6.76188 7.63327C6.62564 7.08396 5.78498 7.31602 5.92412 7.86827C6.15313 8.78476 4.67762 9.1255 4.08046 9.337C3.005 9.72181 2.18753 9.80405 2.06867 9.52793C1.87155 9.06969 1.81358 8.59382 1.82517 8.45576C1.85996 8.04451 2.40204 7.65677 2.67453 7.40415C3.02529 7.08396 3.42533 6.8049 3.7442 6.45535C3.95581 6.22329 4.21381 5.75917 4.56457 5.75329C4.81967 5.74742 4.9733 5.55355 4.99939 5.31267C5.03998 4.9308 5.08346 4.54893 5.12404 4.16706C5.55307 4.58125 5.54727 5.10118 5.54727 5.32736C5.54727 5.89429 6.35895 6.03235 6.40533 5.15993C7.28657 5.50948 8.06926 6.14691 8.65772 6.8754C9.38823 7.77721 9.75638 8.91988 10.713 9.63368C11.6667 10.3445 12.9828 10.4121 14.1249 10.368C15.1047 10.3299 16.0961 10.0361 17.0353 9.77468C18.0963 9.478 19.2298 8.95807 20.3487 9.09613C21.4126 9.22537 22.3547 9.79524 22.6475 10.8909C22.9287 11.9396 22.6272 12.9736 22.3112 13.9723C21.9547 15.0915 21.8097 16.1284 22.2272 17.2535C22.4939 17.9761 22.8591 18.6576 23.0301 19.4125V19.4066ZM24.4651 14.4922C24.3404 13.4024 24.5288 11.8897 23.5664 11.0672C23.4997 10.6647 23.3722 10.274 23.1809 9.91862C23.6273 10.0067 24.0476 10.2036 24.352 10.5649C24.8477 11.1524 24.8796 12.0042 24.8593 12.7386C24.8361 13.6081 24.7375 14.4952 24.9753 15.3441C25.0854 15.7436 25.2738 16.1137 25.5115 16.4457C24.7086 16.0344 24.5201 14.9622 24.4651 14.4893V14.4922Z" stroke="#F7CE45" stroke-width="0.3"/>
</svg>
