<svg width="19" height="19" viewBox="0 0 19 19" fill="none" xmlns="http://www.w3.org/2000/svg">
<path d="M17.2624 7.94956H16.6247V7.91671H9.49967V11.0834H13.9738C13.321 12.9268 11.5671 14.25 9.49967 14.25C6.87649 14.25 4.74967 12.1232 4.74967 9.50004C4.74967 6.87685 6.87649 4.75004 9.49967 4.75004C10.7105 4.75004 11.8121 5.20683 12.6509 5.95298L14.8901 3.71375C13.4762 2.39602 11.5849 1.58337 9.49967 1.58337C5.1277 1.58337 1.58301 5.12806 1.58301 9.50004C1.58301 13.872 5.1277 17.4167 9.49967 17.4167C13.8717 17.4167 17.4163 13.872 17.4163 9.50004C17.4163 8.96923 17.3617 8.45108 17.2624 7.94956Z" fill="#FFC107"/>
<path d="M2.49609 5.81523L5.09711 7.72275C5.80091 5.98029 7.50536 4.75004 9.49997 4.75004C10.7108 4.75004 11.8124 5.20683 12.6512 5.95298L14.8904 3.71375C13.4765 2.39602 11.5852 1.58337 9.49997 1.58337C6.45918 1.58337 3.82214 3.3001 2.49609 5.81523Z" fill="#FF3D00"/>
<path d="M9.49996 17.4167C11.5448 17.4167 13.4029 16.6341 14.8077 15.3615L12.3575 13.2882C11.5361 13.9132 10.5321 14.2511 9.49996 14.25C7.44084 14.25 5.69244 12.937 5.03377 11.1047L2.45215 13.0938C3.76236 15.6576 6.42315 17.4167 9.49996 17.4167Z" fill="#4CAF50"/>
<path d="M17.2627 7.94948H16.625V7.91663H9.5V11.0833H13.9741C13.6619 11.9606 13.0995 12.7273 12.3563 13.2885L12.3575 13.2877L14.8077 15.3611C14.6344 15.5186 17.4167 13.4583 17.4167 9.49996C17.4167 8.96915 17.362 8.451 17.2627 7.94948Z" fill="#1976D2"/>
</svg>
