<svg width="240" height="240" viewBox="0 0 240 240" fill="none" xmlns="http://www.w3.org/2000/svg">
<path d="M110 25V45" stroke="#2563EB" stroke-width="20" stroke-linecap="round" stroke-linejoin="round"/>
<path d="M50 25V45" stroke="#2563EB" stroke-width="20" stroke-linecap="round" stroke-linejoin="round"/>
<path d="M50 35H40C38.6875 35 37.3875 35.1312 36.1 35.3875C34.8125 35.6437 33.5625 36.0187 32.3437 36.525C31.1312 37.025 29.9812 37.6437 28.8875 38.3687C27.7938 39.1 26.7875 39.9312 25.8562 40.8562C24.9312 41.7875 24.1 42.8 23.3687 43.8875C22.6437 44.9812 22.025 46.1313 21.525 47.35C21.0188 48.5625 20.6375 49.8125 20.3813 51.1C20.125 52.3875 20 53.6875 20 55V95C20 96.9688 20.0937 98.925 20.2875 100.881C20.4812 102.838 20.7688 104.781 21.15 106.706C21.5375 108.631 22.0125 110.537 22.5813 112.419C23.1563 114.3 23.8125 116.144 24.5688 117.963C25.3188 119.775 26.1562 121.55 27.0875 123.287C28.0125 125.019 29.0187 126.7 30.1125 128.337C31.2062 129.969 32.375 131.544 33.6187 133.062C34.8687 134.581 36.1812 136.038 37.575 137.425C38.9625 138.819 40.4187 140.138 41.9375 141.381C43.4562 142.625 45.0312 143.8 46.6687 144.888C48.3 145.981 49.9812 146.987 51.7187 147.919C53.45 148.844 55.225 149.681 57.0375 150.431C58.8562 151.188 60.7 151.844 62.5812 152.419C64.4625 152.987 66.3687 153.463 68.2937 153.85C70.225 154.231 72.1625 154.519 74.1187 154.712C76.075 154.906 78.0375 155 80 155C81.9625 155 83.925 154.906 85.8812 154.712C87.8375 154.519 89.775 154.231 91.7062 153.85C93.6312 153.463 95.5375 152.987 97.4187 152.419C99.3 151.844 101.144 151.188 102.962 150.431C104.775 149.681 106.55 148.844 108.281 147.919C110.019 146.987 111.7 145.981 113.331 144.888C114.969 143.8 116.544 142.625 118.062 141.381C119.581 140.138 121.038 138.819 122.425 137.425C123.819 136.038 125.131 134.581 126.381 133.062C127.625 131.544 128.794 129.969 129.888 128.337C130.981 126.7 131.988 125.019 132.913 123.287C133.844 121.55 134.681 119.775 135.431 117.963C136.188 116.144 136.844 114.3 137.419 112.419C137.987 110.537 138.463 108.631 138.85 106.706C139.231 104.781 139.519 102.838 139.713 100.881C139.906 98.925 140 96.9688 140 95V55C140 53.6875 139.869 52.3875 139.619 51.1C139.362 49.8125 138.981 48.5625 138.475 47.35C137.975 46.1313 137.356 44.9812 136.631 43.8875C135.9 42.8 135.069 41.7875 134.144 40.8562C133.213 39.9312 132.206 39.1 131.112 38.3687C130.019 37.6437 128.869 37.025 127.656 36.525C126.437 36.0187 125.188 35.6437 123.9 35.3875C122.613 35.1312 121.312 35 120 35H110" stroke="#2563EB" stroke-width="20" stroke-linecap="round" stroke-linejoin="round"/>
<path d="M80 155C80 156.969 80.0938 158.925 80.2875 160.881C80.4813 162.838 80.7687 164.781 81.15 166.706C81.5375 168.631 82.0125 170.537 82.5813 172.419C83.1563 174.3 83.8125 176.144 84.5687 177.962C85.3187 179.775 86.1562 181.55 87.0875 183.288C88.0125 185.019 89.0188 186.7 90.1125 188.337C91.2063 189.969 92.375 191.544 93.6187 193.062C94.8687 194.581 96.1812 196.037 97.575 197.425C98.9625 198.819 100.419 200.137 101.938 201.381C103.456 202.625 105.031 203.8 106.669 204.887C108.3 205.981 109.981 206.988 111.719 207.919C113.45 208.844 115.225 209.681 117.038 210.431C118.856 211.187 120.7 211.844 122.581 212.419C124.463 212.987 126.369 213.462 128.294 213.85C130.219 214.231 132.163 214.519 134.119 214.712C136.075 214.906 138.038 215 140 215C141.963 215 143.925 214.906 145.881 214.712C147.838 214.519 149.775 214.231 151.706 213.85C153.631 213.462 155.537 212.987 157.419 212.419C159.3 211.844 161.144 211.187 162.962 210.431C164.775 209.681 166.55 208.844 168.281 207.919C170.019 206.988 171.7 205.981 173.331 204.887C174.969 203.8 176.544 202.625 178.062 201.381C179.581 200.137 181.038 198.819 182.425 197.425C183.819 196.037 185.131 194.581 186.381 193.062C187.625 191.544 188.794 189.969 189.888 188.337C190.981 186.7 191.988 185.019 192.913 183.288C193.844 181.55 194.681 179.775 195.431 177.962C196.188 176.144 196.844 174.3 197.419 172.419C197.987 170.537 198.463 168.631 198.85 166.706C199.231 164.781 199.519 162.838 199.713 160.881C199.906 158.925 200 156.969 200 155V125" stroke="#2563EB" stroke-width="20" stroke-linecap="round" stroke-linejoin="round"/>
<path d="M220 105C220 106.312 219.869 107.613 219.619 108.9C219.363 110.188 218.981 111.444 218.475 112.656C217.975 113.869 217.356 115.019 216.631 116.112C215.9 117.206 215.069 118.212 214.144 119.144C213.212 120.069 212.206 120.9 211.112 121.631C210.019 122.362 208.869 122.975 207.656 123.481C206.437 123.981 205.187 124.362 203.9 124.619C202.612 124.875 201.312 125 200 125C198.687 125 197.388 124.875 196.1 124.619C194.813 124.362 193.562 123.981 192.344 123.481C191.131 122.975 189.981 122.362 188.887 121.631C187.794 120.9 186.787 120.069 185.856 119.144C184.931 118.212 184.1 117.206 183.369 116.112C182.644 115.019 182.025 113.869 181.525 112.656C181.019 111.444 180.638 110.188 180.381 108.9C180.125 107.613 180 106.312 180 105C180 103.687 180.125 102.387 180.381 101.1C180.638 99.8125 181.019 98.5625 181.525 97.35C182.025 96.1312 182.644 94.9812 183.369 93.8875C184.1 92.8 184.931 91.7875 185.856 90.8562C186.787 89.9312 187.794 89.1 188.887 88.3687C189.981 87.6437 191.131 87.025 192.344 86.525C193.562 86.0188 194.813 85.6437 196.1 85.3875C197.388 85.1312 198.687 85 200 85C201.312 85 202.612 85.1312 203.9 85.3875C205.187 85.6437 206.437 86.0188 207.656 86.525C208.869 87.025 210.019 87.6437 211.112 88.3687C212.206 89.1 213.212 89.9312 214.144 90.8562C215.069 91.7875 215.9 92.8 216.631 93.8875C217.356 94.9812 217.975 96.1312 218.475 97.35C218.981 98.5625 219.363 99.8125 219.619 101.1C219.869 102.387 220 103.687 220 105Z" stroke="#2563EB" stroke-width="20" stroke-linecap="round" stroke-linejoin="round"/>
<mask id="mask0_1200_1965" style="mask-type:luminance" maskUnits="userSpaceOnUse" x="49" y="67" width="15" height="18">
<path d="M49.2559 67.2688H63.7871V84.8125H49.2559V67.2688Z" fill="white"/>
</mask>
<g mask="url(#mask0_1200_1965)">
<mask id="mask1_1200_1965" style="mask-type:luminance" maskUnits="userSpaceOnUse" x="49" y="67" width="15" height="18">
<path d="M56.5246 67.2688C52.5121 67.2688 49.2559 71.1875 49.2559 76.0125C49.2559 80.8438 52.5121 84.7625 56.5246 84.7625C60.5371 84.7625 63.7871 80.8438 63.7871 76.0125C63.7871 71.1875 60.5371 67.2688 56.5246 67.2688Z" fill="white"/>
</mask>
<g mask="url(#mask1_1200_1965)">
<mask id="mask2_1200_1965" style="mask-type:luminance" maskUnits="userSpaceOnUse" x="48" y="67" width="17" height="18">
<path d="M64.7998 67.2312H48.7998V84.8312H64.7998V67.2312Z" fill="white"/>
</mask>
<g mask="url(#mask2_1200_1965)">
<mask id="mask3_1200_1965" style="mask-type:luminance" maskUnits="userSpaceOnUse" x="49" y="67" width="15" height="18">
<path d="M49.2559 67.2688H63.7871V84.8125H49.2559V67.2688Z" fill="white"/>
</mask>
<g mask="url(#mask3_1200_1965)">
<mask id="mask4_1200_1965" style="mask-type:luminance" maskUnits="userSpaceOnUse" x="49" y="67" width="15" height="18">
<path d="M56.5246 67.2688C52.5121 67.2688 49.2559 71.1875 49.2559 76.0125C49.2559 80.8438 52.5121 84.7625 56.5246 84.7625C60.5371 84.7625 63.7871 80.8438 63.7871 76.0125C63.7871 71.1875 60.5371 67.2688 56.5246 67.2688Z" fill="white"/>
</mask>
<g mask="url(#mask4_1200_1965)">
<path d="M49.2559 67.2688H63.7871V84.75H49.2559V67.2688Z" fill="#2563EB"/>
</g>
</g>
</g>
</g>
</g>
<mask id="mask5_1200_1965" style="mask-type:luminance" maskUnits="userSpaceOnUse" x="95" y="67" width="16" height="18">
<path d="M95.5371 67.2688H110.068V84.8125H95.5371V67.2688Z" fill="white"/>
</mask>
<g mask="url(#mask5_1200_1965)">
<mask id="mask6_1200_1965" style="mask-type:luminance" maskUnits="userSpaceOnUse" x="95" y="67" width="16" height="18">
<path d="M102.806 67.2688C98.7934 67.2688 95.5371 71.1875 95.5371 76.0125C95.5371 80.8438 98.7934 84.7625 102.806 84.7625C106.818 84.7625 110.068 80.8438 110.068 76.0125C110.068 71.1875 106.818 67.2688 102.806 67.2688Z" fill="white"/>
</mask>
<g mask="url(#mask6_1200_1965)">
<mask id="mask7_1200_1965" style="mask-type:luminance" maskUnits="userSpaceOnUse" x="95" y="67" width="17" height="18">
<path d="M111.199 67.2312H95.1992V84.8312H111.199V67.2312Z" fill="white"/>
</mask>
<g mask="url(#mask7_1200_1965)">
<mask id="mask8_1200_1965" style="mask-type:luminance" maskUnits="userSpaceOnUse" x="95" y="67" width="16" height="18">
<path d="M95.5371 67.2688H110.068V84.8125H95.5371V67.2688Z" fill="white"/>
</mask>
<g mask="url(#mask8_1200_1965)">
<mask id="mask9_1200_1965" style="mask-type:luminance" maskUnits="userSpaceOnUse" x="95" y="67" width="16" height="18">
<path d="M102.806 67.2688C98.7934 67.2688 95.5371 71.1875 95.5371 76.0125C95.5371 80.8438 98.7934 84.7625 102.806 84.7625C106.818 84.7625 110.068 80.8438 110.068 76.0125C110.068 71.1875 106.818 67.2688 102.806 67.2688Z" fill="white"/>
</mask>
<g mask="url(#mask9_1200_1965)">
<path d="M95.5371 67.2688H110.068V84.75H95.5371V67.2688Z" fill="#2563EB"/>
</g>
</g>
</g>
</g>
</g>
<path d="M56.5254 114.2C69.1441 128.606 76.8442 124.638 79.6129 102.294" stroke="#2563EB" stroke-width="6"/>
<mask id="mask10_1200_1965" style="mask-type:luminance" maskUnits="userSpaceOnUse" x="53" y="111" width="7" height="7">
<path d="M53.5684 111.325H59.4746V117.231H53.5684V111.325Z" fill="white"/>
</mask>
<g mask="url(#mask10_1200_1965)">
<mask id="mask11_1200_1965" style="mask-type:luminance" maskUnits="userSpaceOnUse" x="53" y="111" width="7" height="7">
<path d="M56.5246 111.325C54.8934 111.325 53.5684 112.65 53.5684 114.275C53.5684 115.906 54.8934 117.231 56.5246 117.231C58.1559 117.231 59.4746 115.906 59.4746 114.275C59.4746 112.65 58.1559 111.325 56.5246 111.325Z" fill="white"/>
</mask>
<g mask="url(#mask11_1200_1965)">
<mask id="mask12_1200_1965" style="mask-type:luminance" maskUnits="userSpaceOnUse" x="52" y="110" width="8" height="9">
<path d="M60 110.431H52V118.431H60V110.431Z" fill="white"/>
</mask>
<g mask="url(#mask12_1200_1965)">
<mask id="mask13_1200_1965" style="mask-type:luminance" maskUnits="userSpaceOnUse" x="53" y="111" width="7" height="7">
<path d="M53.5684 111.325H59.4746V117.231H53.5684V111.325Z" fill="white"/>
</mask>
<g mask="url(#mask13_1200_1965)">
<mask id="mask14_1200_1965" style="mask-type:luminance" maskUnits="userSpaceOnUse" x="53" y="111" width="7" height="7">
<path d="M56.5246 111.325C54.8934 111.325 53.5684 112.65 53.5684 114.275C53.5684 115.906 54.8934 117.231 56.5246 117.231C58.1559 117.231 59.4746 115.906 59.4746 114.275C59.4746 112.65 58.1559 111.325 56.5246 111.325Z" fill="white"/>
</mask>
<g mask="url(#mask14_1200_1965)">
<path d="M53.5684 111.325H59.4746V117.231H53.5684V111.325Z" fill="#2563EB"/>
</g>
</g>
</g>
</g>
</g>
<mask id="mask15_1200_1965" style="mask-type:luminance" maskUnits="userSpaceOnUse" x="69" y="97" width="21" height="14">
<path d="M69.3691 97.2563H89.8566V110.569H69.3691V97.2563Z" fill="white"/>
</mask>
<g mask="url(#mask15_1200_1965)">
<mask id="mask16_1200_1965" style="mask-type:luminance" maskUnits="userSpaceOnUse" x="69" y="97" width="21" height="14">
<path d="M79.6129 110.569L89.8566 97.2563H69.3691L79.6129 110.569Z" fill="white"/>
</mask>
<g mask="url(#mask16_1200_1965)">
<mask id="mask17_1200_1965" style="mask-type:luminance" maskUnits="userSpaceOnUse" x="68" y="96" width="23" height="17">
<path d="M90.4 96.0312H68V112.031H90.4V96.0312Z" fill="white"/>
</mask>
<g mask="url(#mask17_1200_1965)">
<mask id="mask18_1200_1965" style="mask-type:luminance" maskUnits="userSpaceOnUse" x="69" y="97" width="21" height="14">
<path d="M69.3691 97.2563H89.8566V110.569H69.3691V97.2563Z" fill="white"/>
</mask>
<g mask="url(#mask18_1200_1965)">
<mask id="mask19_1200_1965" style="mask-type:luminance" maskUnits="userSpaceOnUse" x="69" y="97" width="21" height="14">
<path d="M79.6129 110.569L89.8566 97.2563H69.3691L79.6129 110.569Z" fill="white"/>
</mask>
<g mask="url(#mask19_1200_1965)">
<path d="M69.3691 97.2563H89.8566V110.569H69.3691V97.2563Z" fill="#2563EB"/>
</g>
</g>
</g>
</g>
</g>
<mask id="mask20_1200_1965" style="mask-type:luminance" maskUnits="userSpaceOnUse" x="68" y="94" width="24" height="13">
<path d="M68.1064 94.3125H91.1627V106.356H68.1064V94.3125Z" fill="white"/>
</mask>
<g mask="url(#mask20_1200_1965)">
<mask id="mask21_1200_1965" style="mask-type:luminance" maskUnits="userSpaceOnUse" x="68" y="94" width="24" height="13">
<path d="M79.6127 94.3125C73.2564 94.3125 68.1064 97.0125 68.1064 100.338C68.1064 103.663 73.2564 106.356 79.6127 106.356C85.9689 106.356 91.1189 103.663 91.1189 100.338C91.1189 97.0125 85.9689 94.3125 79.6127 94.3125Z" fill="white"/>
</mask>
<g mask="url(#mask21_1200_1965)">
<mask id="mask22_1200_1965" style="mask-type:luminance" maskUnits="userSpaceOnUse" x="68" y="92" width="24" height="16">
<path d="M92 92.8313H68V107.231H92V92.8313Z" fill="white"/>
</mask>
<g mask="url(#mask22_1200_1965)">
<mask id="mask23_1200_1965" style="mask-type:luminance" maskUnits="userSpaceOnUse" x="68" y="94" width="24" height="13">
<path d="M68.1064 94.3125H91.1627V106.356H68.1064V94.3125Z" fill="white"/>
</mask>
<g mask="url(#mask23_1200_1965)">
<mask id="mask24_1200_1965" style="mask-type:luminance" maskUnits="userSpaceOnUse" x="68" y="94" width="24" height="13">
<path d="M79.6127 94.3125C73.2564 94.3125 68.1064 97.0125 68.1064 100.337C68.1064 103.662 73.2564 106.356 79.6127 106.356C85.9689 106.356 91.1189 103.662 91.1189 100.337C91.1189 97.0125 85.9689 94.3125 79.6127 94.3125Z" fill="white"/>
</mask>
<g mask="url(#mask24_1200_1965)">
<path d="M68.1064 94.3125H91.1127V106.356H68.1064V94.3125Z" fill="#2563EB"/>
</g>
</g>
</g>
</g>
</g>
<mask id="mask25_1200_1965" style="mask-type:luminance" maskUnits="userSpaceOnUse" x="75" y="100" width="9" height="9">
<path d="M75.3184 100.337H83.9059V108.925H75.3184V100.337Z" fill="white"/>
</mask>
<g mask="url(#mask25_1200_1965)">
<mask id="mask26_1200_1965" style="mask-type:luminance" maskUnits="userSpaceOnUse" x="75" y="100" width="9" height="9">
<path d="M79.6121 100.337C77.2371 100.337 75.3184 102.256 75.3184 104.631C75.3184 107 77.2371 108.925 79.6121 108.925C81.9809 108.925 83.9059 107 83.9059 104.631C83.9059 102.256 81.9809 100.337 79.6121 100.337Z" fill="white"/>
</mask>
<g mask="url(#mask26_1200_1965)">
<mask id="mask27_1200_1965" style="mask-type:luminance" maskUnits="userSpaceOnUse" x="74" y="99" width="10" height="12">
<path d="M83.9994 99.2312H74.3994V110.431H83.9994V99.2312Z" fill="white"/>
</mask>
<g mask="url(#mask27_1200_1965)">
<mask id="mask28_1200_1965" style="mask-type:luminance" maskUnits="userSpaceOnUse" x="75" y="100" width="9" height="9">
<path d="M75.3184 100.337H83.9059V108.925H75.3184V100.337Z" fill="white"/>
</mask>
<g mask="url(#mask28_1200_1965)">
<mask id="mask29_1200_1965" style="mask-type:luminance" maskUnits="userSpaceOnUse" x="75" y="100" width="9" height="9">
<path d="M79.6121 100.337C77.2371 100.337 75.3184 102.256 75.3184 104.631C75.3184 107 77.2371 108.925 79.6121 108.925C81.9809 108.925 83.9059 107 83.9059 104.631C83.9059 102.256 81.9809 100.337 79.6121 100.337Z" fill="white"/>
</mask>
<g mask="url(#mask29_1200_1965)">
<path d="M75.3184 100.337H83.9059V108.925H75.3184V100.337Z" fill="#2563EB"/>
</g>
</g>
</g>
</g>
</g>
<mask id="mask30_1200_1965" style="mask-type:luminance" maskUnits="userSpaceOnUse" x="76" y="94" width="16" height="17">
<path d="M76 94.4312H92V110.431H76V94.4312Z" fill="white"/>
</mask>
<g mask="url(#mask30_1200_1965)">
<mask id="mask31_1200_1965" style="mask-type:luminance" maskUnits="userSpaceOnUse" x="75" y="94" width="18" height="18">
<path d="M75.2061 103.906L86.4623 94.1311L92.6248 101.231L81.3623 111.006L75.2061 103.906Z" fill="white"/>
</mask>
<g mask="url(#mask31_1200_1965)">
<mask id="mask32_1200_1965" style="mask-type:luminance" maskUnits="userSpaceOnUse" x="76" y="95" width="15" height="15">
<path d="M83.6313 96.5874C85.1813 95.2437 87.8188 95.7437 89.525 97.6999C91.225 99.6624 91.3438 102.344 89.7938 103.687L84.175 108.569C82.625 109.912 79.9875 109.412 78.2813 107.456C76.5813 105.494 76.4625 102.812 78.0125 101.469L83.6313 96.5874Z" fill="white"/>
</mask>
<g mask="url(#mask32_1200_1965)">
<mask id="mask33_1200_1965" style="mask-type:luminance" maskUnits="userSpaceOnUse" x="76" y="94" width="16" height="17">
<path d="M92 94.4312H76V110.431H92V94.4312Z" fill="white"/>
</mask>
<g mask="url(#mask33_1200_1965)">
<mask id="mask34_1200_1965" style="mask-type:luminance" maskUnits="userSpaceOnUse" x="76" y="95" width="16" height="15">
<path d="M76.125 95.0061H91.4875V109.981H76.125V95.0061Z" fill="white"/>
</mask>
<g mask="url(#mask34_1200_1965)">
<mask id="mask35_1200_1965" style="mask-type:luminance" maskUnits="userSpaceOnUse" x="75" y="94" width="18" height="18">
<path d="M75.2061 103.906L86.4623 94.1311L92.6248 101.231L81.3623 111.006L75.2061 103.906Z" fill="white"/>
</mask>
<g mask="url(#mask35_1200_1965)">
<mask id="mask36_1200_1965" style="mask-type:luminance" maskUnits="userSpaceOnUse" x="76" y="95" width="15" height="15">
<path d="M83.6313 96.5874C85.1813 95.2437 87.8188 95.7437 89.525 97.6999C91.225 99.6624 91.3438 102.344 89.7938 103.687L84.175 108.569C82.625 109.912 79.9875 109.412 78.2813 107.456C76.5813 105.494 76.4625 102.812 78.0125 101.469L83.6313 96.5874Z" fill="white"/>
</mask>
<g mask="url(#mask36_1200_1965)">
<path d="M75.2061 103.906L86.4373 94.1562L92.5936 101.256L81.3623 111.006L75.2061 103.906Z" fill="#2563EB"/>
</g>
</g>
</g>
</g>
</g>
</g>
</g>
<mask id="mask37_1200_1965" style="mask-type:luminance" maskUnits="userSpaceOnUse" x="68" y="94" width="15" height="17">
<path d="M68 94.4312H82.4V110.431H68V94.4312Z" fill="white"/>
</mask>
<g mask="url(#mask37_1200_1965)">
<mask id="mask38_1200_1965" style="mask-type:luminance" maskUnits="userSpaceOnUse" x="66" y="94" width="18" height="18">
<path d="M73.3752 94.1562L83.9189 104.7L77.2689 111.35L66.7314 100.806L73.3752 94.1562Z" fill="white"/>
</mask>
<g mask="url(#mask38_1200_1965)">
<mask id="mask39_1200_1965" style="mask-type:luminance" maskUnits="userSpaceOnUse" x="68" y="95" width="15" height="15">
<path d="M81.269 102.05C82.719 103.506 82.4128 106.169 80.5753 108.006C78.7378 109.837 76.0753 110.15 74.619 108.7L69.3628 103.437C67.9065 101.981 68.219 99.3187 70.0503 97.4812C71.8878 95.6499 74.5565 95.3374 76.0065 96.7874L81.269 102.05Z" fill="white"/>
</mask>
<g mask="url(#mask39_1200_1965)">
<mask id="mask40_1200_1965" style="mask-type:luminance" maskUnits="userSpaceOnUse" x="68" y="94" width="15" height="17">
<path d="M82.4 94.4312H68V110.431H82.4V94.4312Z" fill="white"/>
</mask>
<g mask="url(#mask40_1200_1965)">
<mask id="mask41_1200_1965" style="mask-type:luminance" maskUnits="userSpaceOnUse" x="68" y="95" width="15" height="16">
<path d="M68 95.0061H82.4V110.369H68V95.0061Z" fill="white"/>
</mask>
<g mask="url(#mask41_1200_1965)">
<mask id="mask42_1200_1965" style="mask-type:luminance" maskUnits="userSpaceOnUse" x="66" y="94" width="18" height="18">
<path d="M73.3752 94.156L83.9189 104.7L77.2689 111.35L66.7314 100.806L73.3752 94.156Z" fill="white"/>
</mask>
<g mask="url(#mask42_1200_1965)">
<mask id="mask43_1200_1965" style="mask-type:luminance" maskUnits="userSpaceOnUse" x="68" y="95" width="15" height="15">
<path d="M81.269 102.05C82.719 103.506 82.4128 106.168 80.5753 108.006C78.7378 109.837 76.0753 110.15 74.619 108.7L69.3628 103.437C67.9065 101.981 68.219 99.3184 70.0503 97.4809C71.8878 95.6497 74.5565 95.3372 76.0065 96.7872L81.269 102.05Z" fill="white"/>
</mask>
<g mask="url(#mask43_1200_1965)">
<path d="M73.3752 94.156L83.8939 104.675L77.2439 111.319L66.7314 100.806L73.3752 94.156Z" fill="#2563EB"/>
</g>
</g>
</g>
</g>
</g>
</g>
</g>
<path d="M80.3876 106.381C83.3751 124.45 90.8501 127.369 102.8 115.125" stroke="#2563EB" stroke-width="6"/>
<mask id="mask44_1200_1965" style="mask-type:luminance" maskUnits="userSpaceOnUse" x="99" y="112" width="7" height="7">
<path d="M99.8496 112.175H105.756V118.081H99.8496V112.175Z" fill="white"/>
</mask>
<g mask="url(#mask44_1200_1965)">
<mask id="mask45_1200_1965" style="mask-type:luminance" maskUnits="userSpaceOnUse" x="99" y="112" width="7" height="7">
<path d="M102.806 112.175C101.175 112.175 99.8496 113.494 99.8496 115.125C99.8496 116.756 101.175 118.081 102.806 118.081C104.437 118.081 105.756 116.756 105.756 115.125C105.756 113.494 104.437 112.175 102.806 112.175Z" fill="white"/>
</mask>
<g mask="url(#mask45_1200_1965)">
<mask id="mask46_1200_1965" style="mask-type:luminance" maskUnits="userSpaceOnUse" x="98" y="112" width="9" height="7">
<path d="M106.399 112.031H98.3994V118.431H106.399V112.031Z" fill="white"/>
</mask>
<g mask="url(#mask46_1200_1965)">
<mask id="mask47_1200_1965" style="mask-type:luminance" maskUnits="userSpaceOnUse" x="99" y="112" width="7" height="7">
<path d="M99.8496 112.175H105.756V118.081H99.8496V112.175Z" fill="white"/>
</mask>
<g mask="url(#mask47_1200_1965)">
<mask id="mask48_1200_1965" style="mask-type:luminance" maskUnits="userSpaceOnUse" x="99" y="112" width="7" height="7">
<path d="M102.806 112.175C101.175 112.175 99.8496 113.494 99.8496 115.125C99.8496 116.756 101.175 118.081 102.806 118.081C104.437 118.081 105.756 116.756 105.756 115.125C105.756 113.494 104.437 112.175 102.806 112.175Z" fill="white"/>
</mask>
<g mask="url(#mask48_1200_1965)">
<path d="M99.8496 112.175H105.756V118.081H99.8496V112.175Z" fill="#2563EB"/>
</g>
</g>
</g>
</g>
</g>
</svg>
