<svg width="37" height="37" viewBox="0 0 37 37" fill="none" xmlns="http://www.w3.org/2000/svg">
<rect width="37" height="37" rx="6.37931" fill="white"/>
<path d="M16.9375 6.37939V8.86732" stroke="#2563EB" stroke-width="2.48793" stroke-linecap="round" stroke-linejoin="round"/>
<path d="M9.47314 6.37939V8.86732" stroke="#2563EB" stroke-width="2.48793" stroke-linecap="round" stroke-linejoin="round"/>
<path d="M9.47359 7.62354H8.22963C8.06636 7.62354 7.90464 7.63986 7.74448 7.67174C7.58432 7.70362 7.42883 7.75026 7.27722 7.81324C7.12639 7.87544 6.98333 7.95241 6.84727 8.0426C6.71121 8.13356 6.58604 8.23696 6.4702 8.35203C6.35513 8.46788 6.25172 8.59383 6.16076 8.72911C6.07057 8.86517 5.9936 9.00822 5.9314 9.15983C5.86843 9.31066 5.821 9.46616 5.78913 9.62632C5.75725 9.78648 5.7417 9.94819 5.7417 10.1115V15.0873C5.7417 15.3322 5.75336 15.5756 5.77746 15.8189C5.80156 16.0623 5.83733 16.3041 5.88476 16.5435C5.93296 16.783 5.99205 17.0201 6.0628 17.2542C6.13433 17.4882 6.21596 17.7175 6.31004 17.9438C6.40333 18.1692 6.50751 18.39 6.62336 18.6062C6.73843 18.8215 6.8636 19.0307 6.99966 19.2344C7.13572 19.4373 7.2811 19.6332 7.43582 19.8222C7.59132 20.0111 7.75459 20.1922 7.92797 20.3648C8.10057 20.5382 8.28172 20.7023 8.47065 20.857C8.65957 21.0117 8.8555 21.1579 9.0592 21.2931C9.26212 21.4292 9.47126 21.5544 9.6874 21.6702C9.90276 21.7853 10.1236 21.8895 10.349 21.9828C10.5753 22.0768 10.8046 22.1585 11.0387 22.23C11.2727 22.3008 11.5098 22.3598 11.7493 22.408C11.9895 22.4555 12.2305 22.4912 12.4739 22.5153C12.7172 22.5394 12.9614 22.5511 13.2055 22.5511C13.4496 22.5511 13.6937 22.5394 13.9371 22.5153C14.1804 22.4912 14.4215 22.4555 14.6617 22.408C14.9012 22.3598 15.1383 22.3008 15.3723 22.23C15.6063 22.1585 15.8357 22.0768 16.0619 21.9828C16.2874 21.8895 16.5082 21.7853 16.7236 21.6702C16.9397 21.5544 17.1488 21.4292 17.3518 21.2931C17.5555 21.1579 17.7514 21.0117 17.9403 20.857C18.1292 20.7023 18.3104 20.5382 18.483 20.3648C18.6564 20.1922 18.8197 20.0111 18.9751 19.8222C19.1299 19.6332 19.2753 19.4373 19.4113 19.2344C19.5474 19.0307 19.6725 18.8215 19.7876 18.6062C19.9035 18.39 20.0076 18.1692 20.1009 17.9438C20.195 17.7175 20.2766 17.4882 20.3482 17.2542C20.4189 17.0201 20.478 16.783 20.5262 16.5435C20.5736 16.3041 20.6094 16.0623 20.6335 15.8189C20.6576 15.5756 20.6693 15.3322 20.6693 15.0873V10.1115C20.6693 9.94819 20.6529 9.78648 20.6218 9.62632C20.59 9.46616 20.5425 9.31066 20.4796 9.15983C20.4174 9.00822 20.3404 8.86517 20.2502 8.72911C20.1592 8.59383 20.0558 8.46788 19.9408 8.35203C19.8249 8.23696 19.6998 8.13356 19.5637 8.0426C19.4276 7.95241 19.2846 7.87544 19.1338 7.81324C18.9821 7.75026 18.8266 7.70362 18.6665 7.67174C18.5063 7.63986 18.3446 7.62354 18.1813 7.62354H16.9374" stroke="#2563EB" stroke-width="2.48793" stroke-linecap="round" stroke-linejoin="round"/>
<path d="M13.2051 22.5505C13.2051 22.7954 13.2167 23.0388 13.2408 23.2821C13.2649 23.5255 13.3007 23.7672 13.3481 24.0067C13.3963 24.2462 13.4554 24.4833 13.5262 24.7173C13.5977 24.9513 13.6793 25.1807 13.7734 25.4069C13.8667 25.6324 13.9709 25.8532 14.0867 26.0694C14.2018 26.2847 14.327 26.4939 14.463 26.6976C14.5991 26.9005 14.7445 27.0964 14.8992 27.2853C15.0547 27.4743 15.218 27.6554 15.3913 27.828C15.5639 28.0014 15.7451 28.1654 15.934 28.3202C16.123 28.4749 16.3189 28.621 16.5226 28.7563C16.7255 28.8924 16.9346 29.0176 17.1508 29.1334C17.3661 29.2485 17.5869 29.3526 17.8124 29.4459C18.0387 29.54 18.268 29.6217 18.502 29.6932C18.7361 29.7639 18.9732 29.823 19.2126 29.8712C19.4521 29.9187 19.6939 29.9544 19.9373 29.9785C20.1806 30.0026 20.4247 30.0143 20.6689 30.0143C20.913 30.0143 21.1571 30.0026 21.4005 29.9785C21.6438 29.9544 21.8848 29.9187 22.1251 29.8712C22.3645 29.823 22.6017 29.7639 22.8357 29.6932C23.0697 29.6217 23.2991 29.54 23.5253 29.4459C23.7508 29.3526 23.9716 29.2485 24.1869 29.1334C24.4031 29.0176 24.6122 28.8924 24.8152 28.7563C25.0188 28.621 25.2148 28.4749 25.4037 28.3202C25.5926 28.1654 25.7738 28.0014 25.9464 27.828C26.1198 27.6554 26.283 27.4743 26.4385 27.2853C26.5932 27.0964 26.7386 26.9005 26.8747 26.6976C27.0107 26.4939 27.1359 26.2847 27.251 26.0694C27.3668 25.8532 27.471 25.6324 27.5643 25.4069C27.6584 25.1807 27.74 24.9513 27.8115 24.7173C27.8823 24.4833 27.9414 24.2462 27.9896 24.0067C28.037 23.7672 28.0728 23.5255 28.0969 23.2821C28.121 23.0388 28.1326 22.7954 28.1326 22.5505V18.8186" stroke="#2563EB" stroke-width="2.48793" stroke-linecap="round" stroke-linejoin="round"/>
<path d="M30.6204 16.3309C30.6204 16.4942 30.6041 16.6559 30.573 16.8161C30.5411 16.9763 30.4937 17.1325 30.4307 17.2834C30.3685 17.4342 30.2915 17.5772 30.2013 17.7133C30.1104 17.8494 30.007 17.9745 29.8919 18.0904C29.776 18.2054 29.6509 18.3088 29.5148 18.3998C29.3788 18.4908 29.2357 18.567 29.0849 18.6299C28.9333 18.6921 28.7778 18.7396 28.6176 18.7714C28.4574 18.8033 28.2957 18.8189 28.1325 18.8189C27.9692 18.8189 27.8075 18.8033 27.6473 18.7714C27.4872 18.7396 27.3317 18.6921 27.18 18.6299C27.0292 18.567 26.8862 18.4908 26.7501 18.3998C26.614 18.3088 26.4889 18.2054 26.373 18.0904C26.258 17.9745 26.1546 17.8494 26.0636 17.7133C25.9734 17.5772 25.8964 17.4342 25.8342 17.2834C25.7713 17.1325 25.7238 16.9763 25.692 16.8161C25.6601 16.6559 25.6445 16.4942 25.6445 16.3309C25.6445 16.1677 25.6601 16.006 25.692 15.8458C25.7238 15.6856 25.7713 15.5301 25.8342 15.3793C25.8964 15.2277 25.9734 15.0846 26.0636 14.9486C26.1546 14.8133 26.258 14.6874 26.373 14.5715C26.4889 14.4564 26.614 14.353 26.7501 14.2621C26.8862 14.1719 27.0292 14.0949 27.18 14.0327C27.3317 13.9697 27.4872 13.9231 27.6473 13.8912C27.8075 13.8593 27.9692 13.843 28.1325 13.843C28.2957 13.843 28.4574 13.8593 28.6176 13.8912C28.7778 13.9231 28.9333 13.9697 29.0849 14.0327C29.2357 14.0949 29.3788 14.1719 29.5148 14.2621C29.6509 14.353 29.776 14.4564 29.8919 14.5715C30.007 14.6874 30.1104 14.8133 30.2013 14.9486C30.2915 15.0846 30.3685 15.2277 30.4307 15.3793C30.4937 15.5301 30.5411 15.6856 30.573 15.8458C30.6041 16.006 30.6204 16.1677 30.6204 16.3309Z" stroke="#2563EB" stroke-width="2.48793" stroke-linecap="round" stroke-linejoin="round"/>
<mask id="mask0_293_4827" style="mask-type:luminance" maskUnits="userSpaceOnUse" x="9" y="11" width="3" height="3">
<path d="M9.38086 11.6372H11.1885V13.8196H9.38086V11.6372Z" fill="white"/>
</mask>
<g mask="url(#mask0_293_4827)">
<mask id="mask1_293_4827" style="mask-type:luminance" maskUnits="userSpaceOnUse" x="9" y="11" width="3" height="3">
<path d="M10.2851 11.6372C9.78593 11.6372 9.38086 12.1247 9.38086 12.7249C9.38086 13.3259 9.78593 13.8134 10.2851 13.8134C10.7842 13.8134 11.1885 13.3259 11.1885 12.7249C11.1885 12.1247 10.7842 11.6372 10.2851 11.6372Z" fill="white"/>
</mask>
<g mask="url(#mask1_293_4827)">
<mask id="mask2_293_4827" style="mask-type:luminance" maskUnits="userSpaceOnUse" x="9" y="11" width="3" height="3">
<path d="M11.3141 11.6326H9.32373V13.8219H11.3141V11.6326Z" fill="white"/>
</mask>
<g mask="url(#mask2_293_4827)">
<mask id="mask3_293_4827" style="mask-type:luminance" maskUnits="userSpaceOnUse" x="9" y="11" width="3" height="3">
<path d="M9.38037 11.6372H11.188V13.8196H9.38037V11.6372Z" fill="white"/>
</mask>
<g mask="url(#mask3_293_4827)">
<mask id="mask4_293_4827" style="mask-type:luminance" maskUnits="userSpaceOnUse" x="9" y="11" width="3" height="3">
<path d="M10.2846 11.6372C9.78544 11.6372 9.38037 12.1247 9.38037 12.7249C9.38037 13.3259 9.78544 13.8134 10.2846 13.8134C10.7837 13.8134 11.188 13.3259 11.188 12.7249C11.188 12.1247 10.7837 11.6372 10.2846 11.6372Z" fill="white"/>
</mask>
<g mask="url(#mask4_293_4827)">
<path d="M9.38037 11.6372H11.188V13.8118H9.38037V11.6372Z" fill="#2563EB"/>
</g>
</g>
</g>
</g>
</g>
<mask id="mask5_293_4827" style="mask-type:luminance" maskUnits="userSpaceOnUse" x="15" y="11" width="2" height="3">
<path d="M15.1382 11.6372H16.9458V13.8196H15.1382V11.6372Z" fill="white"/>
</mask>
<g mask="url(#mask5_293_4827)">
<mask id="mask6_293_4827" style="mask-type:luminance" maskUnits="userSpaceOnUse" x="15" y="11" width="2" height="3">
<path d="M16.0424 11.6372C15.5432 11.6372 15.1382 12.1247 15.1382 12.7249C15.1382 13.3259 15.5432 13.8134 16.0424 13.8134C16.5415 13.8134 16.9458 13.3259 16.9458 12.7249C16.9458 12.1247 16.5415 11.6372 16.0424 11.6372Z" fill="white"/>
</mask>
<g mask="url(#mask6_293_4827)">
<mask id="mask7_293_4827" style="mask-type:luminance" maskUnits="userSpaceOnUse" x="15" y="11" width="3" height="3">
<path d="M17.0865 11.6326H15.0962V13.8219H17.0865V11.6326Z" fill="white"/>
</mask>
<g mask="url(#mask7_293_4827)">
<mask id="mask8_293_4827" style="mask-type:luminance" maskUnits="userSpaceOnUse" x="15" y="11" width="2" height="3">
<path d="M15.1377 11.6372H16.9453V13.8196H15.1377V11.6372Z" fill="white"/>
</mask>
<g mask="url(#mask8_293_4827)">
<mask id="mask9_293_4827" style="mask-type:luminance" maskUnits="userSpaceOnUse" x="15" y="11" width="2" height="3">
<path d="M16.0419 11.6372C15.5428 11.6372 15.1377 12.1247 15.1377 12.7249C15.1377 13.3259 15.5428 13.8134 16.0419 13.8134C16.541 13.8134 16.9453 13.3259 16.9453 12.7249C16.9453 12.1247 16.541 11.6372 16.0419 11.6372Z" fill="white"/>
</mask>
<g mask="url(#mask9_293_4827)">
<path d="M15.1377 11.6372H16.9453V13.8118H15.1377V11.6372Z" fill="#2563EB"/>
</g>
</g>
</g>
</g>
</g>
<path d="M10.2847 17.4758C11.8544 19.2679 12.8122 18.7742 13.1567 15.9947" stroke="#2563EB" stroke-width="0.746379"/>
<mask id="mask10_293_4827" style="mask-type:luminance" maskUnits="userSpaceOnUse" x="9" y="17" width="2" height="1">
<path d="M9.91748 17.1179H10.6522V17.8526H9.91748V17.1179Z" fill="white"/>
</mask>
<g mask="url(#mask10_293_4827)">
<mask id="mask11_293_4827" style="mask-type:luminance" maskUnits="userSpaceOnUse" x="9" y="17" width="2" height="1">
<path d="M10.2852 17.1179C10.0823 17.1179 9.91748 17.2827 9.91748 17.4849C9.91748 17.6878 10.0823 17.8526 10.2852 17.8526C10.4881 17.8526 10.6522 17.6878 10.6522 17.4849C10.6522 17.2827 10.4881 17.1179 10.2852 17.1179Z" fill="white"/>
</mask>
<g mask="url(#mask11_293_4827)">
<mask id="mask12_293_4827" style="mask-type:luminance" maskUnits="userSpaceOnUse" x="9" y="17" width="2" height="2">
<path d="M10.7178 17.0066H9.72266V18.0018H10.7178V17.0066Z" fill="white"/>
</mask>
<g mask="url(#mask12_293_4827)">
<mask id="mask13_293_4827" style="mask-type:luminance" maskUnits="userSpaceOnUse" x="9" y="17" width="2" height="1">
<path d="M9.91797 17.1179H10.6527V17.8526H9.91797V17.1179Z" fill="white"/>
</mask>
<g mask="url(#mask13_293_4827)">
<mask id="mask14_293_4827" style="mask-type:luminance" maskUnits="userSpaceOnUse" x="9" y="17" width="2" height="1">
<path d="M10.2857 17.1179C10.0828 17.1179 9.91797 17.2827 9.91797 17.4849C9.91797 17.6878 10.0828 17.8526 10.2857 17.8526C10.4886 17.8526 10.6527 17.6878 10.6527 17.4849C10.6527 17.2827 10.4886 17.1179 10.2857 17.1179Z" fill="white"/>
</mask>
<g mask="url(#mask14_293_4827)">
<path d="M9.91797 17.1179H10.6527V17.8526H9.91797V17.1179Z" fill="#2563EB"/>
</g>
</g>
</g>
</g>
</g>
<mask id="mask15_293_4827" style="mask-type:luminance" maskUnits="userSpaceOnUse" x="11" y="15" width="4" height="3">
<path d="M11.8828 15.3677H14.4314V17.0237H11.8828V15.3677Z" fill="white"/>
</mask>
<g mask="url(#mask15_293_4827)">
<mask id="mask16_293_4827" style="mask-type:luminance" maskUnits="userSpaceOnUse" x="11" y="15" width="4" height="3">
<path d="M13.1571 17.0237L14.4314 15.3677H11.8828L13.1571 17.0237Z" fill="white"/>
</mask>
<g mask="url(#mask16_293_4827)">
<mask id="mask17_293_4827" style="mask-type:luminance" maskUnits="userSpaceOnUse" x="11" y="15" width="4" height="3">
<path d="M14.4984 15.2153H11.7119V17.2057H14.4984V15.2153Z" fill="white"/>
</mask>
<g mask="url(#mask17_293_4827)">
<mask id="mask18_293_4827" style="mask-type:luminance" maskUnits="userSpaceOnUse" x="11" y="15" width="4" height="3">
<path d="M11.8828 15.3677H14.4314V17.0237H11.8828V15.3677Z" fill="white"/>
</mask>
<g mask="url(#mask18_293_4827)">
<mask id="mask19_293_4827" style="mask-type:luminance" maskUnits="userSpaceOnUse" x="11" y="15" width="4" height="3">
<path d="M13.1571 17.0237L14.4314 15.3677H11.8828L13.1571 17.0237Z" fill="white"/>
</mask>
<g mask="url(#mask19_293_4827)">
<path d="M11.8828 15.3677H14.4314V17.0237H11.8828V15.3677Z" fill="#2563EB"/>
</g>
</g>
</g>
</g>
</g>
<mask id="mask20_293_4827" style="mask-type:luminance" maskUnits="userSpaceOnUse" x="11" y="15" width="4" height="2">
<path d="M11.7256 15.0017H14.5937V16.4999H11.7256V15.0017Z" fill="white"/>
</mask>
<g mask="url(#mask20_293_4827)">
<mask id="mask21_293_4827" style="mask-type:luminance" maskUnits="userSpaceOnUse" x="11" y="15" width="4" height="2">
<path d="M13.1569 15.0017C12.3662 15.0017 11.7256 15.3376 11.7256 15.7512C11.7256 16.1648 12.3662 16.4999 13.1569 16.4999C13.9476 16.4999 14.5883 16.1648 14.5883 15.7512C14.5883 15.3376 13.9476 15.0017 13.1569 15.0017Z" fill="white"/>
</mask>
<g mask="url(#mask21_293_4827)">
<mask id="mask22_293_4827" style="mask-type:luminance" maskUnits="userSpaceOnUse" x="11" y="14" width="4" height="3">
<path d="M14.6974 14.8176H11.7119V16.6089H14.6974V14.8176Z" fill="white"/>
</mask>
<g mask="url(#mask22_293_4827)">
<mask id="mask23_293_4827" style="mask-type:luminance" maskUnits="userSpaceOnUse" x="11" y="15" width="4" height="2">
<path d="M11.7256 15.0017H14.5937V16.4999H11.7256V15.0017Z" fill="white"/>
</mask>
<g mask="url(#mask23_293_4827)">
<mask id="mask24_293_4827" style="mask-type:luminance" maskUnits="userSpaceOnUse" x="11" y="15" width="4" height="2">
<path d="M13.1569 15.0017C12.3662 15.0017 11.7256 15.3376 11.7256 15.7512C11.7256 16.1648 12.3662 16.4999 13.1569 16.4999C13.9476 16.4999 14.5883 16.1648 14.5883 15.7512C14.5883 15.3376 13.9476 15.0017 13.1569 15.0017Z" fill="white"/>
</mask>
<g mask="url(#mask24_293_4827)">
<path d="M11.7256 15.0017H14.5875V16.4999H11.7256V15.0017Z" fill="#2563EB"/>
</g>
</g>
</g>
</g>
</g>
<mask id="mask25_293_4827" style="mask-type:luminance" maskUnits="userSpaceOnUse" x="12" y="15" width="2" height="2">
<path d="M12.623 15.751H13.6913V16.8192H12.623V15.751Z" fill="white"/>
</mask>
<g mask="url(#mask25_293_4827)">
<mask id="mask26_293_4827" style="mask-type:luminance" maskUnits="userSpaceOnUse" x="12" y="15" width="2" height="2">
<path d="M13.1572 15.751C12.8617 15.751 12.623 15.9897 12.623 16.2851C12.623 16.5798 12.8617 16.8192 13.1572 16.8192C13.4518 16.8192 13.6913 16.5798 13.6913 16.2851C13.6913 15.9897 13.4518 15.751 13.1572 15.751Z" fill="white"/>
</mask>
<g mask="url(#mask26_293_4827)">
<mask id="mask27_293_4827" style="mask-type:luminance" maskUnits="userSpaceOnUse" x="12" y="15" width="2" height="3">
<path d="M13.7025 15.613H12.5083V17.0063H13.7025V15.613Z" fill="white"/>
</mask>
<g mask="url(#mask27_293_4827)">
<mask id="mask28_293_4827" style="mask-type:luminance" maskUnits="userSpaceOnUse" x="12" y="15" width="2" height="2">
<path d="M12.6226 15.7507H13.6908V16.819H12.6226V15.7507Z" fill="white"/>
</mask>
<g mask="url(#mask28_293_4827)">
<mask id="mask29_293_4827" style="mask-type:luminance" maskUnits="userSpaceOnUse" x="12" y="15" width="2" height="2">
<path d="M13.1567 15.7507C12.8612 15.7507 12.6226 15.9894 12.6226 16.2849C12.6226 16.5795 12.8612 16.819 13.1567 16.819C13.4513 16.819 13.6908 16.5795 13.6908 16.2849C13.6908 15.9894 13.4513 15.7507 13.1567 15.7507Z" fill="white"/>
</mask>
<g mask="url(#mask29_293_4827)">
<path d="M12.6226 15.7507H13.6908V16.819H12.6226V15.7507Z" fill="#2563EB"/>
</g>
</g>
</g>
</g>
</g>
<mask id="mask30_293_4827" style="mask-type:luminance" maskUnits="userSpaceOnUse" x="12" y="15" width="3" height="3">
<path d="M12.7075 15.0166H14.6979V17.0069H12.7075V15.0166Z" fill="white"/>
</mask>
<g mask="url(#mask30_293_4827)">
<mask id="mask31_293_4827" style="mask-type:luminance" maskUnits="userSpaceOnUse" x="12" y="14" width="3" height="4">
<path d="M12.6094 16.1952L14.0096 14.9792L14.7762 15.8625L13.3752 17.0784L12.6094 16.1952Z" fill="white"/>
</mask>
<g mask="url(#mask31_293_4827)">
<mask id="mask32_293_4827" style="mask-type:luminance" maskUnits="userSpaceOnUse" x="12" y="15" width="3" height="2">
<path d="M13.6571 15.2848C13.85 15.1176 14.178 15.1798 14.3903 15.4232C14.6018 15.6673 14.6165 16.0008 14.4237 16.168L13.7248 16.7752C13.532 16.9423 13.2039 16.8801 12.9916 16.6368C12.7801 16.3927 12.7654 16.0591 12.9582 15.892L13.6571 15.2848Z" fill="white"/>
</mask>
<g mask="url(#mask32_293_4827)">
<mask id="mask33_293_4827" style="mask-type:luminance" maskUnits="userSpaceOnUse" x="12" y="15" width="3" height="3">
<path d="M14.6979 15.0166H12.7075V17.0069H14.6979V15.0166Z" fill="white"/>
</mask>
<g mask="url(#mask33_293_4827)">
<mask id="mask34_293_4827" style="mask-type:luminance" maskUnits="userSpaceOnUse" x="12" y="15" width="3" height="2">
<path d="M12.7236 15.0876H14.6347V16.9505H12.7236V15.0876Z" fill="white"/>
</mask>
<g mask="url(#mask34_293_4827)">
<mask id="mask35_293_4827" style="mask-type:luminance" maskUnits="userSpaceOnUse" x="12" y="14" width="3" height="4">
<path d="M12.6094 16.1952L14.0096 14.9792L14.7762 15.8625L13.3752 17.0784L12.6094 16.1952Z" fill="white"/>
</mask>
<g mask="url(#mask35_293_4827)">
<mask id="mask36_293_4827" style="mask-type:luminance" maskUnits="userSpaceOnUse" x="12" y="15" width="3" height="2">
<path d="M13.6571 15.2848C13.85 15.1176 14.178 15.1798 14.3903 15.4232C14.6018 15.6673 14.6165 16.0008 14.4237 16.168L13.7248 16.7752C13.532 16.9423 13.2039 16.8802 12.9916 16.6368C12.7801 16.3927 12.7654 16.0591 12.9582 15.892L13.6571 15.2848Z" fill="white"/>
</mask>
<g mask="url(#mask36_293_4827)">
<path d="M12.6094 16.1953L14.0065 14.9824L14.7723 15.8656L13.3752 17.0785L12.6094 16.1953Z" fill="#2563EB"/>
</g>
</g>
</g>
</g>
</g>
</g>
</g>
<mask id="mask37_293_4827" style="mask-type:luminance" maskUnits="userSpaceOnUse" x="11" y="15" width="3" height="3">
<path d="M11.7119 15.0166H13.5032V17.0069H11.7119V15.0166Z" fill="white"/>
</mask>
<g mask="url(#mask37_293_4827)">
<mask id="mask38_293_4827" style="mask-type:luminance" maskUnits="userSpaceOnUse" x="11" y="14" width="3" height="4">
<path d="M12.3802 14.9824L13.6918 16.294L12.8645 17.1213L11.5537 15.8097L12.3802 14.9824Z" fill="white"/>
</mask>
<g mask="url(#mask38_293_4827)">
<mask id="mask39_293_4827" style="mask-type:luminance" maskUnits="userSpaceOnUse" x="11" y="15" width="3" height="2">
<path d="M13.3618 15.9639C13.5422 16.1451 13.5041 16.4763 13.2755 16.7049C13.0469 16.9327 12.7157 16.9715 12.5346 16.7912L11.8807 16.1365C11.6996 15.9554 11.7385 15.6242 11.9663 15.3956C12.1948 15.1678 12.5268 15.1289 12.7072 15.3093L13.3618 15.9639Z" fill="white"/>
</mask>
<g mask="url(#mask39_293_4827)">
<mask id="mask40_293_4827" style="mask-type:luminance" maskUnits="userSpaceOnUse" x="11" y="15" width="3" height="3">
<path d="M13.5027 15.0164H11.7114V17.0067H13.5027V15.0164Z" fill="white"/>
</mask>
<g mask="url(#mask40_293_4827)">
<mask id="mask41_293_4827" style="mask-type:luminance" maskUnits="userSpaceOnUse" x="11" y="15" width="3" height="2">
<path d="M11.7114 15.0876H13.5027V16.9987H11.7114V15.0876Z" fill="white"/>
</mask>
<g mask="url(#mask41_293_4827)">
<mask id="mask42_293_4827" style="mask-type:luminance" maskUnits="userSpaceOnUse" x="11" y="14" width="3" height="4">
<path d="M12.3792 14.9822L13.6908 16.2938L12.8636 17.121L11.5527 15.8094L12.3792 14.9822Z" fill="white"/>
</mask>
<g mask="url(#mask42_293_4827)">
<mask id="mask43_293_4827" style="mask-type:luminance" maskUnits="userSpaceOnUse" x="11" y="15" width="3" height="2">
<path d="M13.3613 15.9639C13.5417 16.1451 13.5036 16.4763 13.275 16.7049C13.0465 16.9327 12.7153 16.9715 12.5341 16.7912L11.8802 16.1365C11.6991 15.9554 11.738 15.6242 11.9658 15.3956C12.1943 15.1678 12.5263 15.1289 12.7067 15.3093L13.3613 15.9639Z" fill="white"/>
</mask>
<g mask="url(#mask43_293_4827)">
<path d="M12.3792 14.9819L13.6877 16.2904L12.8605 17.1169L11.5527 15.8092L12.3792 14.9819Z" fill="#2563EB"/>
</g>
</g>
</g>
</g>
</g>
</g>
</g>
<path d="M13.2533 16.5028C13.6249 18.7505 14.5548 19.1136 16.0413 17.5905" stroke="#2563EB" stroke-width="0.746379"/>
<mask id="mask44_293_4827" style="mask-type:luminance" maskUnits="userSpaceOnUse" x="15" y="17" width="2" height="1">
<path d="M15.6748 17.2239H16.4095V17.9586H15.6748V17.2239Z" fill="white"/>
</mask>
<g mask="url(#mask44_293_4827)">
<mask id="mask45_293_4827" style="mask-type:luminance" maskUnits="userSpaceOnUse" x="15" y="17" width="2" height="1">
<path d="M16.0426 17.2239C15.8396 17.2239 15.6748 17.3879 15.6748 17.5908C15.6748 17.7938 15.8396 17.9586 16.0426 17.9586C16.2455 17.9586 16.4095 17.7938 16.4095 17.5908C16.4095 17.3879 16.2455 17.2239 16.0426 17.2239Z" fill="white"/>
</mask>
<g mask="url(#mask45_293_4827)">
<mask id="mask46_293_4827" style="mask-type:luminance" maskUnits="userSpaceOnUse" x="15" y="17" width="2" height="2">
<path d="M16.4893 17.2061H15.4941V18.0022H16.4893V17.2061Z" fill="white"/>
</mask>
<g mask="url(#mask46_293_4827)">
<mask id="mask47_293_4827" style="mask-type:luminance" maskUnits="userSpaceOnUse" x="15" y="17" width="2" height="1">
<path d="M15.6748 17.2239H16.4095V17.9586H15.6748V17.2239Z" fill="white"/>
</mask>
<g mask="url(#mask47_293_4827)">
<mask id="mask48_293_4827" style="mask-type:luminance" maskUnits="userSpaceOnUse" x="15" y="17" width="2" height="1">
<path d="M16.0426 17.2239C15.8396 17.2239 15.6748 17.3879 15.6748 17.5908C15.6748 17.7938 15.8396 17.9586 16.0426 17.9586C16.2455 17.9586 16.4095 17.7938 16.4095 17.5908C16.4095 17.3879 16.2455 17.2239 16.0426 17.2239Z" fill="white"/>
</mask>
<g mask="url(#mask48_293_4827)">
<path d="M15.6748 17.2239H16.4095V17.9586H15.6748V17.2239Z" fill="#2563EB"/>
</g>
</g>
</g>
</g>
</g>
</svg>
