<svg width="23" height="24" viewBox="0 0 23 24" fill="none" xmlns="http://www.w3.org/2000/svg">
<path fill-rule="evenodd" clip-rule="evenodd" d="M9.46357 19.9751L7.33355 22.1764C7.26455 22.2476 7.17111 22.287 7.07408 22.2851L5.42814 22.2566C5.30991 22.2544 5.2003 22.1921 5.13489 22.0897C5.06913 21.9874 5.05547 21.858 5.0986 21.7432C5.49822 20.6805 6.29388 20.4802 6.65433 20.4454C6.94686 20.1037 7.13554 19.7861 7.25377 19.5004C3.08825 17.6021 3.53999 15.3315 3.59569 15.1087C3.82102 13.8971 3.36354 13.5079 3.24961 13.4314C2.80363 13.4122 2.27319 13.3526 1.64249 13.2352C1.63925 13.2349 1.63566 13.2341 1.63243 13.2334C1.38338 13.3455 1.1656 13.3305 0.988067 13.2562C0.683676 13.1284 0.460864 12.768 0.39941 12.3529C0.367067 12.3319 0.33616 12.3067 0.30777 12.2779C0.213614 12.1826 0.129879 12.0379 0.127004 11.7997C0.123051 11.4634 0.346942 10.7497 1.28527 9.33412C1.34852 9.10312 1.58032 8.43749 2.26493 7.91474C2.74254 7.54949 3.44943 7.24611 4.49557 7.24274C4.50096 7.16249 4.50743 7.08037 4.51461 6.99637C4.48874 6.95961 4.46933 6.91686 4.45747 6.86999C3.97735 4.93536 3.7991 3.69524 3.7991 2.92949C3.7991 2.29762 3.93135 1.93387 4.08947 1.74074C4.33852 1.43737 4.68352 1.40324 5.05368 1.56974C5.40658 1.72799 5.78824 2.10262 6.01644 2.35049C6.44086 1.89524 6.97166 1.61174 7.62608 1.59862C7.7303 1.59637 7.83057 1.64174 7.90065 1.72237C9.1563 3.17287 8.59244 4.62674 7.79679 6.00299C7.44819 6.60599 7.05971 7.19099 6.82144 7.75199C6.76286 7.88962 6.71291 8.02537 6.67697 8.15924C6.88936 8.34562 7.74036 9.14812 7.94916 10.1951C8.5468 10.1595 9.35144 10.2769 10.2114 10.8832C14.9232 9.58124 17.6623 10.3522 19.2562 11.6996C21.6219 13.6991 21.5188 17.0325 21.5066 17.298V18.2936C21.756 18.2216 22.0428 18.1845 22.3756 18.1909C22.5136 18.1931 22.6383 18.2779 22.6961 18.4087C22.6961 18.4087 23.1673 19.4651 22.5624 20.4844C22.2041 21.0881 21.4491 21.7076 19.8833 22.0121C19.751 22.1561 19.6134 22.2634 19.4754 22.341C18.9888 22.614 18.4638 22.5544 18.0084 22.3642C17.9498 22.3399 17.8927 22.3132 17.837 22.2851C17.8309 22.2851 17.8248 22.2851 17.8187 22.2851C17.8187 22.2851 12.7432 22.173 11.0682 22.2844C10.647 22.3125 10.3854 22.2731 10.2387 22.2127C10.1004 22.1557 10.017 22.0729 9.96525 21.9896C9.89446 21.8756 9.87074 21.747 9.89877 21.6052C9.92716 21.4627 10.0386 21.2767 10.2211 21.1009C10.5068 20.8245 11.0958 20.4319 11.1526 20.3944C11.2134 20.3321 11.2939 20.2942 11.3801 20.2882C10.1938 19.9237 9.46608 19.9747 9.46608 19.9747L9.46357 19.9751ZM16.857 21.5149C16.7977 21.3776 16.8218 21.2104 16.9292 21.0964C17.0687 20.949 17.2972 20.9475 17.4388 21.093C17.4388 21.093 17.8029 21.4684 18.2765 21.666C18.5425 21.7774 18.8494 21.8385 19.1336 21.6787C19.2174 21.6319 19.2975 21.5681 19.3737 21.4864C19.3981 21.4399 19.4319 21.3986 19.4729 21.3664C19.6695 21.099 19.8369 20.6895 19.9681 20.0959L19.8553 17.6685C19.2465 14.2226 17.1218 13.2499 15.5614 14.0141C14.0046 14.7765 13.1673 17.1667 14.9972 20.2875H15.6711L15.6894 20.2879C15.9837 20.3115 16.1418 20.6816 15.9377 20.9164C15.9064 20.952 15.8687 20.9812 15.827 21.0022C15.7778 21.027 15.7253 21.0379 15.6711 21.0394H13.2578H13.2525H13.2489H11.526L11.4969 21.0607C11.3453 21.1669 11.0455 21.354 10.8238 21.5422C10.8835 21.5415 10.9496 21.5389 11.0222 21.534C12.2494 21.4522 15.2858 21.489 16.857 21.5149ZM14.1628 20.2875C12.3195 16.8176 13.4943 14.196 15.2553 13.3335C17.1348 12.4129 19.8438 13.3939 20.5686 17.5575C20.5711 17.5736 20.5729 17.5901 20.5736 17.6066L20.6293 18.7984C20.6822 18.7477 20.7375 18.6994 20.7957 18.654C20.7893 18.6259 20.7857 18.5962 20.7857 18.5662V17.2905C20.7857 17.2822 20.786 17.274 20.7868 17.2661C20.7868 17.2661 20.9876 14.1307 18.8026 12.2839C17.3802 11.0816 14.9713 10.4516 10.9047 11.4757C11.0042 11.5762 11.1038 11.6842 11.2033 11.8001C11.3359 11.9546 11.3233 12.1927 11.1753 12.3311C11.0268 12.4695 10.799 12.4564 10.6664 12.3019C9.33671 10.7527 8.01457 10.8765 7.45358 11.0366C7.26204 11.0914 7.06366 10.9732 7.01119 10.7734C6.96088 10.5814 7.06258 10.3834 7.24011 10.3189C7.16141 9.92624 6.96304 9.57974 6.75927 9.31049C6.73843 9.41962 6.67158 9.51824 6.56916 9.57262C6.39163 9.66674 6.17457 9.59249 6.08472 9.40762C5.83999 8.90474 5.85113 8.37562 6.02255 7.82474C6.24069 7.12462 6.73663 6.38062 7.17974 5.61449C7.78565 4.56674 8.31752 3.46612 7.47586 2.36249C6.53358 2.47874 6.01536 3.42862 5.68618 4.50074C5.10579 6.39224 5.16868 8.74087 5.16868 8.74087C5.17407 8.94824 5.01702 9.12112 4.81829 9.12674C4.61955 9.13237 4.45352 8.96849 4.44813 8.76112C4.44813 8.76112 4.44094 8.46524 4.45639 7.99499C3.6345 8.00512 3.07136 8.23049 2.69079 8.52112C2.09782 8.97412 1.97168 9.56774 1.97168 9.56774C1.96161 9.61799 1.94221 9.66524 1.91418 9.70761C1.55947 10.2386 1.31079 10.6564 1.14224 10.9845C1.26119 10.9657 1.39452 10.9725 1.54294 11.0141C1.82254 11.0929 2.18622 11.3175 2.62179 11.7904C2.75979 11.94 2.75511 12.1781 2.61172 12.3221C2.46833 12.4657 2.24013 12.4612 2.10213 12.3116C1.83763 12.0244 1.61877 11.8504 1.43369 11.769C1.34421 11.7296 1.27557 11.7086 1.22202 11.7379C1.15877 11.772 1.13685 11.8537 1.11924 11.9362C1.09049 12.072 1.09804 12.2272 1.13757 12.3607C1.15338 12.414 1.17458 12.4635 1.20261 12.5047C1.2195 12.5299 1.23639 12.5554 1.26407 12.5606C1.32121 12.5715 1.38194 12.5321 1.461 12.4729C1.61122 12.3604 1.81679 12.3855 1.93825 12.5254C3.51052 12.8002 4.33493 12.6949 4.76654 12.4935C4.96994 12.3986 5.05727 12.255 5.06518 12.2419C5.08027 12.1504 5.12771 12.0675 5.1985 12.0101C5.78752 11.5312 6.03944 11.1664 6.04519 10.8476C6.04843 10.6669 5.9514 10.5244 5.83065 10.4047C5.66569 10.242 5.45114 10.122 5.26175 10.0346C5.07991 9.95062 4.99761 9.72862 5.07775 9.53887C5.15825 9.34912 5.37136 9.26287 5.55321 9.34687C5.86802 9.49199 6.22704 9.71474 6.46458 10.0125C6.65433 10.2502 6.77149 10.5337 6.76574 10.8615C6.75783 11.3014 6.5095 11.8672 5.74008 12.5209C5.67647 12.6979 5.50793 12.9712 5.06086 13.1797C4.85099 13.278 4.56025 13.365 4.15632 13.4085C4.34068 13.7827 4.47041 14.367 4.30043 15.2662C4.29863 15.2764 4.29647 15.2865 4.2936 15.2962C4.2936 15.2962 3.87493 17.0977 7.42771 18.7582C7.45071 18.2752 7.27857 17.9899 7.27857 17.9899C7.16572 17.8192 7.20669 17.5849 7.37057 17.4671C7.53408 17.349 7.75869 17.3921 7.8719 17.5627C7.8719 17.5627 8.25894 18.1219 8.13316 19.0376C8.05697 19.5907 7.78996 20.292 7.07947 21.0739C7.00616 21.1545 6.90302 21.1969 6.797 21.1905C6.797 21.1905 6.4096 21.1792 6.07897 21.5156L6.93429 21.5306L9.85529 18.5119C9.86247 18.5047 9.87002 18.4976 9.87757 18.4905C9.87757 18.4905 10.5367 17.91 10.6639 16.9241C10.7519 16.2405 10.5762 15.3739 9.79886 14.3655C9.67416 14.2039 9.6986 13.9672 9.85385 13.8371C10.0087 13.707 10.2355 13.7325 10.3602 13.8945C11.3072 15.1226 11.4854 16.1914 11.378 17.0246C11.2245 18.2137 10.4709 18.9472 10.3548 19.0541L10.1579 19.2577C10.8428 19.3376 11.9598 19.5806 13.338 20.2875H14.1628ZM20.4184 21.1087C21.2539 20.8522 21.715 20.484 21.9497 20.0884C22.2077 19.6537 22.1696 19.209 22.1114 18.9502C21.3467 19.0129 20.9668 19.4385 20.6829 19.9526L20.6904 20.1116L20.6822 20.2121C20.6078 20.5579 20.5187 20.8549 20.4184 21.1087ZM5.57046 2.94937C5.43893 2.79674 5.18772 2.52562 4.92718 2.35049C4.84919 2.29837 4.77121 2.25412 4.6961 2.23349C4.67418 2.22749 4.65225 2.21137 4.63716 2.22974C4.54552 2.34149 4.51964 2.56349 4.51964 2.92949C4.52 3.41962 4.60014 4.11374 4.79205 5.07561C4.85099 4.80374 4.91963 4.53337 5.00013 4.27162C5.14783 3.78974 5.33614 3.33899 5.57046 2.94937Z" fill="#0BC7DE"/>
<path fill-rule="evenodd" clip-rule="evenodd" d="M9.46357 19.9751L7.33355 22.1764C7.26455 22.2476 7.17111 22.287 7.07408 22.2851L5.42814 22.2566C5.30991 22.2544 5.2003 22.1921 5.13489 22.0897C5.06913 21.9874 5.05547 21.858 5.0986 21.7432C5.49822 20.6805 6.29388 20.4802 6.65433 20.4454C6.94686 20.1037 7.13554 19.7861 7.25377 19.5004C3.08825 17.6021 3.53999 15.3315 3.59569 15.1087C3.82102 13.8971 3.36354 13.5079 3.24961 13.4314C2.80363 13.4122 2.27319 13.3526 1.64249 13.2352C1.63925 13.2349 1.63566 13.2341 1.63243 13.2334C1.38338 13.3455 1.1656 13.3305 0.988067 13.2562C0.683676 13.1284 0.460864 12.768 0.39941 12.3529C0.367067 12.3319 0.33616 12.3067 0.30777 12.2779C0.213614 12.1826 0.129879 12.0379 0.127004 11.7997C0.123051 11.4634 0.346942 10.7497 1.28527 9.33412C1.34852 9.10312 1.58032 8.43749 2.26493 7.91474C2.74254 7.54949 3.44943 7.24611 4.49557 7.24274C4.50096 7.16249 4.50743 7.08037 4.51461 6.99637C4.48874 6.95961 4.46933 6.91686 4.45747 6.86999C3.97735 4.93536 3.7991 3.69524 3.7991 2.92949C3.7991 2.29762 3.93135 1.93387 4.08947 1.74074C4.33852 1.43737 4.68352 1.40324 5.05368 1.56974C5.40658 1.72799 5.78824 2.10262 6.01644 2.35049C6.44086 1.89524 6.97166 1.61174 7.62608 1.59862C7.7303 1.59637 7.83057 1.64174 7.90065 1.72237C9.1563 3.17287 8.59244 4.62674 7.79679 6.00299C7.44819 6.60599 7.05971 7.19099 6.82144 7.75199C6.76286 7.88962 6.71291 8.02537 6.67697 8.15924C6.88936 8.34562 7.74036 9.14812 7.94916 10.1951C8.5468 10.1595 9.35144 10.2769 10.2114 10.8832C14.9232 9.58124 17.6623 10.3522 19.2562 11.6996C21.6219 13.6991 21.5188 17.0325 21.5066 17.298V18.2936C21.756 18.2216 22.0428 18.1845 22.3756 18.1909C22.5136 18.1931 22.6383 18.2779 22.6961 18.4087C22.6961 18.4087 23.1673 19.4651 22.5624 20.4844C22.2041 21.0881 21.4491 21.7076 19.8833 22.0121C19.751 22.1561 19.6134 22.2634 19.4754 22.341C18.9888 22.614 18.4638 22.5544 18.0084 22.3642C17.9498 22.3399 17.8927 22.3132 17.837 22.2851C17.8309 22.2851 17.8248 22.2851 17.8187 22.2851C17.8187 22.2851 12.7432 22.173 11.0682 22.2844C10.647 22.3125 10.3854 22.2731 10.2387 22.2127C10.1004 22.1557 10.017 22.0729 9.96525 21.9896C9.89446 21.8756 9.87074 21.747 9.89877 21.6052C9.92716 21.4627 10.0386 21.2767 10.2211 21.1009C10.5068 20.8245 11.0958 20.4319 11.1526 20.3944C11.2134 20.3321 11.2939 20.2942 11.3801 20.2882C10.1938 19.9237 9.46608 19.9747 9.46608 19.9747L9.46357 19.9751ZM16.857 21.5149C16.7977 21.3776 16.8218 21.2104 16.9292 21.0964C17.0687 20.949 17.2972 20.9475 17.4388 21.093C17.4388 21.093 17.8029 21.4684 18.2765 21.666C18.5425 21.7774 18.8494 21.8385 19.1336 21.6787C19.2174 21.6319 19.2975 21.5681 19.3737 21.4864C19.3981 21.4399 19.4319 21.3986 19.4729 21.3664C19.6695 21.099 19.8369 20.6895 19.9681 20.0959L19.8553 17.6685C19.2465 14.2226 17.1218 13.2499 15.5614 14.0141C14.0046 14.7765 13.1673 17.1667 14.9972 20.2875H15.6711L15.6894 20.2879C15.9837 20.3115 16.1418 20.6816 15.9377 20.9164C15.9064 20.952 15.8687 20.9812 15.827 21.0022C15.7778 21.027 15.7253 21.0379 15.6711 21.0394H13.2578H13.2525H13.2489H11.526L11.4969 21.0607C11.3453 21.1669 11.0455 21.354 10.8238 21.5422C10.8835 21.5415 10.9496 21.5389 11.0222 21.534C12.2494 21.4522 15.2858 21.489 16.857 21.5149ZM14.1628 20.2875C12.3195 16.8176 13.4943 14.196 15.2553 13.3335C17.1348 12.4129 19.8438 13.3939 20.5686 17.5575C20.5711 17.5736 20.5729 17.5901 20.5736 17.6066L20.6293 18.7984C20.6822 18.7477 20.7375 18.6994 20.7957 18.654C20.7893 18.6259 20.7857 18.5962 20.7857 18.5662V17.2905C20.7857 17.2822 20.786 17.274 20.7868 17.2661C20.7868 17.2661 20.9876 14.1307 18.8026 12.2839C17.3802 11.0816 14.9713 10.4516 10.9047 11.4757C11.0042 11.5762 11.1038 11.6842 11.2033 11.8001C11.3359 11.9546 11.3233 12.1927 11.1753 12.3311C11.0268 12.4695 10.799 12.4564 10.6664 12.3019C9.33671 10.7527 8.01457 10.8765 7.45358 11.0366C7.26204 11.0914 7.06366 10.9732 7.01119 10.7734C6.96088 10.5814 7.06258 10.3834 7.24011 10.3189C7.16141 9.92624 6.96304 9.57974 6.75927 9.31049C6.73843 9.41962 6.67158 9.51824 6.56916 9.57262C6.39163 9.66674 6.17457 9.59249 6.08472 9.40762C5.83999 8.90474 5.85113 8.37562 6.02255 7.82474C6.24069 7.12462 6.73663 6.38062 7.17974 5.61449C7.78565 4.56674 8.31752 3.46612 7.47586 2.36249C6.53358 2.47874 6.01536 3.42862 5.68618 4.50074C5.10579 6.39224 5.16868 8.74087 5.16868 8.74087C5.17407 8.94824 5.01702 9.12112 4.81829 9.12674C4.61955 9.13237 4.45352 8.96849 4.44813 8.76112C4.44813 8.76112 4.44094 8.46524 4.45639 7.99499C3.6345 8.00512 3.07136 8.23049 2.69079 8.52112C2.09782 8.97412 1.97168 9.56774 1.97168 9.56774C1.96161 9.61799 1.94221 9.66524 1.91418 9.70761C1.55947 10.2386 1.31079 10.6564 1.14224 10.9845C1.26119 10.9657 1.39452 10.9725 1.54294 11.0141C1.82254 11.0929 2.18622 11.3175 2.62179 11.7904C2.75979 11.94 2.75511 12.1781 2.61172 12.3221C2.46833 12.4657 2.24013 12.4612 2.10213 12.3116C1.83763 12.0244 1.61877 11.8504 1.43369 11.769C1.34421 11.7296 1.27557 11.7086 1.22202 11.7379C1.15877 11.772 1.13685 11.8537 1.11924 11.9362C1.09049 12.072 1.09804 12.2272 1.13757 12.3607C1.15338 12.414 1.17458 12.4635 1.20261 12.5047C1.2195 12.5299 1.23639 12.5554 1.26407 12.5606C1.32121 12.5715 1.38194 12.5321 1.461 12.4729C1.61122 12.3604 1.81679 12.3855 1.93825 12.5254C3.51052 12.8002 4.33493 12.6949 4.76654 12.4935C4.96994 12.3986 5.05727 12.255 5.06518 12.2419C5.08027 12.1504 5.12771 12.0675 5.1985 12.0101C5.78752 11.5312 6.03944 11.1664 6.04519 10.8476C6.04843 10.6669 5.9514 10.5244 5.83065 10.4047C5.66569 10.242 5.45114 10.122 5.26175 10.0346C5.07991 9.95062 4.99761 9.72862 5.07775 9.53887C5.15825 9.34912 5.37136 9.26287 5.55321 9.34687C5.86802 9.49199 6.22704 9.71474 6.46458 10.0125C6.65433 10.2502 6.77149 10.5337 6.76574 10.8615C6.75783 11.3014 6.5095 11.8672 5.74008 12.5209C5.67647 12.6979 5.50793 12.9712 5.06086 13.1797C4.85099 13.278 4.56025 13.365 4.15632 13.4085C4.34068 13.7827 4.47041 14.367 4.30043 15.2662C4.29863 15.2764 4.29647 15.2865 4.2936 15.2962C4.2936 15.2962 3.87493 17.0977 7.42771 18.7582C7.45071 18.2752 7.27857 17.9899 7.27857 17.9899C7.16572 17.8192 7.20669 17.5849 7.37057 17.4671C7.53408 17.349 7.75869 17.3921 7.8719 17.5627C7.8719 17.5627 8.25894 18.1219 8.13316 19.0376C8.05697 19.5907 7.78996 20.292 7.07947 21.0739C7.00616 21.1545 6.90302 21.1969 6.797 21.1905C6.797 21.1905 6.4096 21.1792 6.07897 21.5156L6.93429 21.5306L9.85529 18.5119C9.86247 18.5047 9.87002 18.4976 9.87757 18.4905C9.87757 18.4905 10.5367 17.91 10.6639 16.9241C10.7519 16.2405 10.5762 15.3739 9.79886 14.3655C9.67416 14.2039 9.6986 13.9672 9.85385 13.8371C10.0087 13.707 10.2355 13.7325 10.3602 13.8945C11.3072 15.1226 11.4854 16.1914 11.378 17.0246C11.2245 18.2137 10.4709 18.9472 10.3548 19.0541L10.1579 19.2577C10.8428 19.3376 11.9598 19.5806 13.338 20.2875H14.1628ZM20.4184 21.1087C21.2539 20.8522 21.715 20.484 21.9497 20.0884C22.2077 19.6537 22.1696 19.209 22.1114 18.9502C21.3467 19.0129 20.9668 19.4385 20.6829 19.9526L20.6904 20.1116L20.6822 20.2121C20.6078 20.5579 20.5187 20.8549 20.4184 21.1087ZM5.57046 2.94937C5.43893 2.79674 5.18772 2.52562 4.92718 2.35049C4.84919 2.29837 4.77121 2.25412 4.6961 2.23349C4.67418 2.22749 4.65225 2.21137 4.63716 2.22974C4.54552 2.34149 4.51964 2.56349 4.51964 2.92949C4.52 3.41962 4.60014 4.11374 4.79205 5.07561C4.85099 4.80374 4.91963 4.53337 5.00013 4.27162C5.14783 3.78974 5.33614 3.33899 5.57046 2.94937Z" fill="black" fill-opacity="0.1"/>
</svg>
